<?xml version="1.0" encoding="utf-8"?>
<!-- Generator: Adobe Illustrator 26.1.0, SVG Export Plug-In . SVG Version: 6.00 Build 0)  -->
<svg version="1.1" id="Ebene_1" xmlns="http://www.w3.org/2000/svg" xmlns:xlink="http://www.w3.org/1999/xlink" x="0px" y="0px"
	 viewBox="0 0 474.68 112.55" style="enable-background:new 0 0 474.68 112.55;" xml:space="preserve">
<style type="text/css">
	.st0{fill:#FFFFFF;}
</style>
<g>
	<path class="st0" d="M230.25,85.52c-5.23,0-8.56,4.28-8.56,9.18c0,5.51,3.96,9.14,9.22,9.14c2.72,0,5.51-1.12,7.22-3.16L235.44,98
		c-0.84,0.91-2.43,2.03-4.43,2.03c-2.51,0-4.5-1.7-4.75-4.17h12.19c0.07-0.39,0.11-0.87,0.11-1.34
		C238.56,89.62,235.11,85.52,230.25,85.52z M226.47,92.41c0.22-1.6,1.82-3.09,3.78-3.09c1.92,0,3.34,1.53,3.48,3.09H226.47z"/>
	<path class="st0" d="M120.05,85.52c-5.33,0-9.36,4.1-9.36,9.18c0,5.08,4.03,9.14,9.36,9.14c5.34,0,9.36-4.06,9.36-9.14
		C129.41,89.62,125.39,85.52,120.05,85.52z M120.05,99.49c-2.76,0-4.65-2.14-4.65-4.79c0-2.65,1.89-4.83,4.65-4.83
		c2.76,0,4.65,2.17,4.65,4.83C124.7,97.35,122.81,99.49,120.05,99.49z"/>
	<polygon class="st0" points="204.03,93.28 194.77,78.07 191.33,78.07 191.33,103.48 196.22,103.48 196.22,89.32 202.32,99.31 
		205.73,99.31 211.83,89.32 211.83,103.48 216.73,103.48 216.73,78.07 213.28,78.07 	"/>
	<path class="st0" d="M143.74,85.52c-1.99,0-3.77,0.65-5.16,1.77v-1.41h-4.53v26.31h4.72v-9.94c1.41,1.09,2.94,1.6,4.72,1.6
		c2.61,0,5.12-1.16,6.68-2.98c1.38-1.6,2.21-3.77,2.21-6.16C152.38,89.51,148.53,85.52,143.74,85.52z M143.02,99.49
		c-1.78,0-3.34-0.87-4.25-2.18v-5.26c0.98-1.3,2.54-2.17,4.35-2.17c2.76,0,4.54,2.29,4.54,4.83
		C147.66,97.45,145.66,99.49,143.02,99.49z"/>
	<path class="st0" d="M247.79,87.66v-1.78h-4.54v17.6h4.72V92.41c0.58-1.06,2.21-2.54,4.28-2.54c0.69,0,1.38,0.07,1.71,0.18
		l0.55-4.39c-0.51-0.08-0.91-0.14-1.6-0.14C250.77,85.52,248.84,86.35,247.79,87.66z"/>
	<path class="st0" d="M101.71,80.98H97v4.9h-4.9v3.99H97v6.17c0,2.51,0.4,4.07,1.31,5.26c1.2,1.6,3.27,2.54,6.09,2.54
		c0.91,0,2.33-0.14,2.94-0.36l-0.73-3.99c-0.33,0.07-1.23,0.18-1.92,0.18c-1.16,0-1.92-0.33-2.39-0.87
		c-0.4-0.47-0.58-1.12-0.58-2.21v-6.71h5.8v-3.99h-5.8V80.98z"/>
	<path class="st0" d="M37.39,85.52c-1.81,0-3.49,0.62-4.79,1.63v-9.44h-4.72v25.77h4.72V92.04c0.65-0.9,2.29-2.17,4.28-2.17
		c1.09,0,2.03,0.36,2.65,0.98c0.65,0.65,1.05,1.56,1.05,3.3v9.33h4.72v-8.97c0-3.01-0.65-4.79-1.82-6.17
		C42.04,86.6,39.82,85.52,37.39,85.52z"/>
	<path class="st0" d="M13.58,99.49c-4.9,0-8.68-3.77-8.68-8.71c0-4.83,3.63-8.71,8.46-8.71c2.5,0,4.65,1.09,6.17,2.62l3.16-3.34
		c-2.29-2.21-5.52-3.63-9.29-3.63C5.48,77.71,0,83.48,0,90.78c0,7.29,5.55,13.06,13.46,13.06c4.65,0,8.42-1.99,10.67-4.86
		l-3.38-3.01C19.27,97.89,16.87,99.49,13.58,99.49z"/>
	<path class="st0" d="M55.46,87.66v-1.78h-4.54v17.6h4.72V92.41c0.58-1.06,2.21-2.54,4.29-2.54c0.69,0,1.38,0.07,1.71,0.18
		l0.54-4.39c-0.51-0.08-0.91-0.14-1.6-0.14C58.43,85.52,56.51,86.35,55.46,87.66z"/>
	<rect x="66.08" y="85.88" class="st0" width="4.72" height="17.6"/>
	<path class="st0" d="M80.56,90.92c0-0.9,1.09-1.41,2.39-1.41c1.27,0,2.47,0.54,3.38,1.2l2.21-3.41c-1.16-0.91-3.66-1.77-5.95-1.77
		c-3.48,0-6.75,2.1-6.75,5.48c0,5.66,8.53,4.72,8.53,7.37c0,0.87-0.98,1.49-2.25,1.49c-1.78,0-3.63-0.65-4.83-1.74l-2.29,3.37
		c2.07,1.53,4.65,2.36,7.08,2.36c3.7,0,7-2.07,7-5.44C89.09,92.3,80.56,93.21,80.56,90.92z"/>
	<path class="st0" d="M68.44,76.62c-1.7,0-3.08,1.3-3.08,3.01c0,1.71,1.38,3.02,3.08,3.02c1.71,0,3.08-1.31,3.08-3.02
		C71.53,77.93,70.15,76.62,68.44,76.62z"/>
	<path class="st0" d="M166.54,85.52c-1.81,0-3.48,0.62-4.79,1.63v-9.44h-4.72v25.77h4.72V92.04c0.65-0.9,2.29-2.17,4.28-2.17
		c1.09,0,2.03,0.36,2.65,0.98c0.65,0.65,1.05,1.56,1.05,3.3v9.33h4.72v-8.97c0-3.01-0.66-4.79-1.81-6.17
		C171.19,86.6,168.97,85.52,166.54,85.52z"/>
	<path class="st0" d="M399.21,80.98h-4.71v4.9h-4.9v3.99h4.9v6.17c0,2.51,0.4,4.07,1.3,5.26c1.2,1.6,3.27,2.54,6.1,2.54
		c0.91,0,2.32-0.14,2.94-0.36l-0.72-3.99c-0.33,0.07-1.23,0.18-1.93,0.18c-1.16,0-1.92-0.33-2.4-0.87
		c-0.39-0.47-0.58-1.12-0.58-2.21v-6.71h5.81v-3.99h-5.81V80.98z"/>
	<rect x="363.25" y="85.88" class="st0" width="4.72" height="17.6"/>
	<path class="st0" d="M365.61,76.62c-1.7,0-3.08,1.3-3.08,3.01c0,1.71,1.38,3.02,3.08,3.02c1.71,0,3.09-1.31,3.09-3.02
		C368.7,77.93,367.32,76.62,365.61,76.62z"/>
	<path class="st0" d="M381.69,82.54c0.58-0.69,1.49-1.01,2.65-1.01c0.44,0,1.01,0.07,1.42,0.18l0.73-4.03
		c-0.98-0.26-1.85-0.33-2.79-0.33c-2.39,0-4.24,0.87-5.48,2.07c-1.23,1.2-1.88,2.9-1.88,5.73v0.73h-4.54v3.99h4.54v13.61h4.71V89.87
		h5.44v-3.99h-5.44v-0.55C381.03,83.7,381.29,83.05,381.69,82.54z"/>
	<path class="st0" d="M421.73,97.31c-0.65,0.83-2.1,2.18-4.1,2.18c-0.91,0-1.92-0.29-2.65-1.09c-0.55-0.62-0.87-1.41-0.87-3.01
		v-9.51h-4.71v9.33c0,2.61,0.65,4.43,1.77,5.8c1.38,1.71,3.56,2.83,5.99,2.83c1.7,0,3.38-0.54,4.75-1.78v1.42h4.53v-17.6h-4.71
		V97.31z"/>
	<path class="st0" d="M467.86,87.29c-1.38-1.12-3.15-1.77-5.15-1.77c-4.79,0-8.64,3.99-8.64,9.18c0,2.39,0.84,4.57,2.21,6.16
		c1.56,1.82,4.06,2.98,6.68,2.98c1.78,0,3.3-0.51,4.72-1.6v0.58c0,2.25-0.37,3.34-1.09,4.14c-0.8,0.94-2.07,1.42-3.59,1.42
		c-2.9,0-4.53-1.52-5.48-2.54l-2.97,3.09c1.74,2.03,5.01,3.63,8.45,3.63c3.38,0,6.2-1.31,7.8-3.52c1.05-1.48,1.59-3.37,1.59-6.53
		V85.88h-4.54V87.29z M467.68,97.31c-0.91,1.31-2.47,2.18-4.24,2.18c-2.65,0-4.65-2.03-4.65-4.79c0-2.54,1.77-4.83,4.54-4.83
		c1.81,0,3.38,0.87,4.35,2.17V97.31z"/>
	<path class="st0" d="M441.84,85.52c-1.96,0-3.63,0.69-4.97,1.77v-1.41h-4.54v17.6h4.72V92.04c0.65-0.9,2.29-2.17,4.28-2.17
		c1.09,0,2.04,0.36,2.65,0.98c0.65,0.65,1.06,1.56,1.06,3.3v9.33h4.71v-8.97c0-3.01-0.65-4.79-1.81-6.17
		C446.48,86.6,444.27,85.52,441.84,85.52z"/>
	<path class="st0" d="M352.7,80.98h-4.72v4.9h-4.89v3.99h4.89v6.17c0,2.51,0.4,4.07,1.31,5.26c1.2,1.6,3.26,2.54,6.09,2.54
		c0.91,0,2.32-0.14,2.94-0.36l-0.72-3.99c-0.33,0.07-1.24,0.18-1.92,0.18c-1.17,0-1.92-0.33-2.4-0.87c-0.4-0.47-0.58-1.12-0.58-2.21
		v-6.71h5.8v-3.99h-5.8V80.98z"/>
	<path class="st0" d="M281.45,87.29c-1.38-1.12-3.16-1.77-5.15-1.77c-4.79,0-8.64,3.99-8.64,9.18c0,2.39,0.87,4.57,2.25,6.16
		c1.56,1.82,4.03,2.98,6.64,2.98c1.78,0,3.45-0.54,4.9-1.78v1.42h4.54v-17.6h-4.54V87.29z M281.27,97.31
		c-0.91,1.31-2.47,2.18-4.25,2.18c-2.65,0-4.65-2.03-4.65-4.79c0-2.54,1.78-4.83,4.54-4.83c1.81,0,3.37,0.87,4.35,2.17V97.31z"/>
	<path class="st0" d="M301.38,85.52c-1.96,0-3.62,0.69-4.97,1.77v-1.41h-4.53v17.6h4.71V92.04c0.65-0.9,2.29-2.17,4.28-2.17
		c1.09,0,2.03,0.36,2.65,0.98c0.65,0.65,1.05,1.56,1.05,3.3v9.33h4.72v-8.97c0-3.01-0.65-4.79-1.82-6.17
		C306.03,86.6,303.82,85.52,301.38,85.52z"/>
	<path class="st0" d="M260.78,76.62c-1.71,0-3.09,1.3-3.09,3.01c0,1.71,1.38,3.02,3.09,3.02c1.71,0,3.08-1.31,3.08-3.02
		C263.86,77.93,262.49,76.62,260.78,76.62z"/>
	<path class="st0" d="M329.69,84.82c0-1.96,2.07-2.76,3.92-2.76c1.67,0,3.38,0.73,4.39,1.67l2.54-3.63c-2.39-1.78-4.79-2.4-7.37-2.4
		c-4.21,0-8.38,2.61-8.38,7.15c0,2.87,1.6,4.61,3.59,5.77c3.41,1.99,8.13,2.39,8.13,5.66c0,1.85-1.52,3.2-3.7,3.2
		c-2.32,0-4.53-1.2-5.99-2.8l-3.2,3.34c2.61,2.4,5.77,3.81,9.18,3.81c4.57,0,8.6-3.12,8.6-7.62
		C341.41,87.66,329.69,88.93,329.69,84.82z"/>
	<rect x="258.42" y="85.88" class="st0" width="4.72" height="17.6"/>
	<path class="st0" d="M474.68,41.68c0-19.73-27.59-16.79-27.59-24.19c0-2.93,3.53-4.58,7.75-4.58c4.11,0,7.98,1.76,10.92,3.88
		l7.16-11.04C469.16,2.82,461.06,0,453.66,0c-11.27,0-21.83,6.81-21.83,17.73c0,18.32,27.59,15.27,27.59,23.83
		c0,2.82-3.17,4.82-7.28,4.82c-5.76,0-11.74-2.11-15.61-5.63l-7.4,10.92c6.7,4.93,15.03,7.63,22.89,7.63
		C463.99,59.29,474.68,52.6,474.68,41.68z"/>
	<path class="st0" d="M420.66,58.12V27.94c0-8.46-2.12-14.32-5.75-18.79C410.33,3.52,402.81,0,394.95,0
		c-8.46,0-15.62,4.11-20.2,8.92C370.29,3.52,363.36,0,355.62,0c-5.52,0-10.92,1.76-15.38,5.75V1.17h-14.68v56.94h15.26V21.13
		c2.11-2.7,6.81-7.04,13.27-7.04c2.94,0,6.22,0.94,8.58,3.52c1.76,1.99,2.82,4.58,2.82,9.74v30.76h15.26V27.94
		c0-2.35-0.23-4.46-0.47-6.34c2-2.94,7.16-7.51,13.74-7.51c2.93,0,6.22,0.94,8.57,3.52c1.76,1.99,2.82,4.58,2.82,9.74v30.76H420.66z
		"/>
	<path class="st0" d="M291.48,45.2c-9.27,0-15.73-6.58-15.73-15.5c0-8.69,6.57-15.61,15.38-15.61c5.52,0,10.1,2.82,13.14,6.81
		l10.8-9.51C309.8,4.58,301,0,291.14,0c-17.38,0-30.65,13.15-30.65,29.7c0,16.44,12.92,29.59,30.53,29.59
		c10.68,0,19.13-3.88,25.83-12.8l-11.74-8.8C302.64,41.44,297.71,45.2,291.48,45.2z"/>
</g>
</svg>
