<?xml version="1.0" encoding="utf-8"?>
<!-- Generator: Adobe Illustrator 27.5.0, SVG Export Plug-In . SVG Version: 6.00 Build 0)  -->
<svg version="1.1" id="Ebene_1" xmlns="http://www.w3.org/2000/svg" xmlns:xlink="http://www.w3.org/1999/xlink" x="0px" y="0px"
	 viewBox="0 0 218.1 28.3" style="enable-background:new 0 0 218.1 28.3;" xml:space="preserve">
<style type="text/css">
	.st0{fill:#FFFFFF;}
</style>
<g>
	<g>
		<rect x="20.4" y="0" class="st0" width="1" height="28.3"/>
		<g>
			<path class="st0" d="M5.8,9.4c0.5-0.6,1.5-2.7,4.6-2.7c2.2,0,3.3,0.9,3.8,1.3c1.3,1.3,1.4,3.2,1.4,4.2v9h-5.6v-7.9
				c0-0.2,0-2-1.9-2c-2,0-2,1.8-2,2.3v7.6H0.6V7.1h5.3V9.4z"/>
		</g>
		<path class="st0" d="M46.1,6.8c-1,0-1.9,0.8-1.9,1.9c0,1,0.8,1.9,1.9,1.9c1,0,1.4-0.7,1.4-0.7c0.5,1.7-2.3,10.2-6.3,10.2
			c-1.3,0-1.7-1-1.7-2.4c0-1.6,0.5-3.2,1-5.4c0.6-2.1,1.1-4.2,1.5-5.3h-3.8c-0.5,1.9-4.2,12.7-7.3,12.7c-0.4,0-0.8-0.4-0.8-1.2
			c0-0.4,0.4-1.9,0.5-2.4l1.2-4.2c0.3-0.9,0.7-2,0.7-2.9c0-1.5-1-2.3-2.2-2.3c-3.4,0-4.8,3.1-5.5,4.3l0.6,0.4
			c0.3-0.5,1.8-3.1,2.9-3.1c0.2,0,0.3,0.2,0.3,0.7c0,0.4-0.2,1.2-0.4,1.9l-1.3,4.3c-0.2,0.8-0.7,2.3-0.7,3.4c0,2,1.5,3,2.8,3
			c4.8,0,7-5.9,7.7-7.6l0.1,0.1c-0.1,0.3-0.5,2.1-0.5,3c0,2.6,1.2,4.5,3.7,4.5C47.2,21.7,51.2,6.8,46.1,6.8z"/>
	</g>
	<path class="st0" d="M198.4,15.7h2c0.7,0,1.1,0.1,1.4,0.4c0.2,0.2,0.4,0.6,0.4,1c0,0.9-0.7,1.1-0.9,1.2c0.3,0.1,1.1,0.3,1.1,1.4
		c0,0.8-0.5,1.1-0.7,1.3c-0.4,0.3-0.8,0.3-1.2,0.3h-2V15.7z M199.1,18.1h1.1c0.3,0,1.1,0,1.1-0.9c0-0.8-0.7-0.8-1.1-0.8h-1.1V18.1z
		 M199.1,20.6h1.3c0.6,0,1.1-0.3,1.1-1c0-0.6-0.4-1-1.1-1h-1.3V20.6z"/>
	<path class="st0" d="M205.8,21.3c-0.1-0.2-0.1-0.4-0.1-0.6c-0.3,0.6-0.9,0.7-1.2,0.7c-0.9,0-1.4-0.5-1.4-1.1c0-0.3,0.1-0.8,0.7-1.1
		c0.4-0.2,1-0.3,1.3-0.3c0.2,0,0.3,0,0.5,0c0-0.5,0-0.7-0.1-0.9c-0.1-0.2-0.5-0.3-0.7-0.3c-0.7,0-0.8,0.5-0.8,0.7h-0.7
		c0-0.2,0-0.5,0.3-0.7c0.3-0.3,0.8-0.4,1.2-0.4c0.6,0,1.2,0.2,1.4,0.6c0.1,0.2,0.1,0.4,0.1,0.6l0,1.8c0,0.1,0,0.6,0.1,1H205.8z
		 M205.4,19.4c-0.3,0-1.4,0-1.4,0.8c0,0.2,0.2,0.7,0.8,0.7c0.4,0,0.6-0.1,0.8-0.4c0.2-0.3,0.2-0.5,0.2-1
		C205.6,19.4,205.5,19.4,205.4,19.4z"/>
	<path class="st0" d="M208.3,20.1c0,0.3,0.1,0.7,0.8,0.7c0.3,0,0.5-0.1,0.7-0.2c0.1-0.1,0.1-0.2,0.1-0.4c0-0.4-0.3-0.4-0.8-0.6
		c-0.8-0.2-1.5-0.3-1.5-1.1c0-0.7,0.6-1.2,1.5-1.2c0.5,0,1.2,0.1,1.4,0.6c0.1,0.2,0.1,0.4,0.1,0.6h-0.7c0-0.6-0.5-0.6-0.7-0.6
		c-0.1,0-0.8,0-0.8,0.6c0,0.4,0.3,0.4,0.5,0.5c1.1,0.3,1.3,0.3,1.5,0.5c0.2,0.2,0.3,0.5,0.3,0.7c0,0.4-0.2,0.8-0.5,1
		c-0.3,0.2-0.7,0.3-1.1,0.3c-0.8,0-1.5-0.3-1.5-1.2H208.3z"/>
	<path class="st0" d="M216.2,15.7h0.7v5.5h-0.7V15.7z"/>
	<path class="st0" d="M212.3,19.5c0,0.8,0.3,1.4,1.1,1.4c0.5,0,0.8-0.2,0.9-0.8h0.7c0,0.2-0.1,0.5-0.3,0.8c-0.2,0.2-0.6,0.5-1.3,0.5
		c-1.2,0-1.8-0.8-1.8-2c0-0.8,0.2-1.4,0.8-1.8c0.4-0.3,0.8-0.3,1.1-0.3c1.7,0,1.7,1.5,1.7,2.2H212.3z M214.3,19c0-0.4-0.1-1.1-1-1.1
		c-0.5,0-1,0.3-1.1,1.1H214.3z"/>
	<g>
		<path class="st0" d="M62.2,12.6V7.1h3.3v0.7h-2.5v1.7h2.4v0.7h-2.4v2.5H62.2z"/>
		<path class="st0" d="M68.4,10.2c0-0.7,0-1.1-0.8-1.1c-0.4,0-0.7,0.2-0.7,0.6h-0.8c0-0.8,0.7-1.1,1.5-1.1c0.8,0,1.6,0.2,1.6,1.3
			v1.8c0,0.2,0,0.5,0,0.8h-0.5c-0.1,0-0.2,0-0.2-0.1c0-0.2,0-0.3,0-0.5h0c-0.2,0.5-0.7,0.7-1.2,0.7c-0.7,0-1.3-0.3-1.3-1.1
			c0-1.1,1-1.4,1.9-1.4H68.4z M67.6,10.7c-0.4,0-1,0.2-1,0.7c0,0.5,0.3,0.7,0.8,0.7c0.9,0,1-0.7,1-1.5H67.6z"/>
		<path class="st0" d="M72.6,10c0-0.5-0.3-0.8-0.8-0.8c-0.7,0-1,0.6-1,1.5c0,0.9,0.3,1.5,1,1.5c0.5,0,0.8-0.3,0.8-0.9h0.7
			c-0.1,0.9-0.7,1.4-1.6,1.4c-1.2,0-1.7-0.9-1.7-2c0-1.1,0.6-2.1,1.8-2.1c0.8,0,1.4,0.5,1.5,1.3H72.6z"/>
		<path class="st0" d="M74.3,12.6V7.1h0.7v2.2h0c0.3-0.4,0.7-0.6,1.2-0.6c1,0,1.3,0.7,1.3,1.4v2.6h-0.7v-2.3c0-0.7-0.2-1.1-0.9-1.1
			c-0.3,0-0.7,0.2-0.9,0.5c-0.2,0.4-0.1,0.7-0.1,0.9v2H74.3z"/>
		<path class="st0" d="M79,12.6V7.1h0.7v2.2h0C80,8.9,80.4,8.7,81,8.7c1,0,1.3,0.7,1.3,1.4v2.6h-0.7v-2.3c0-0.7-0.2-1.1-0.9-1.1
			c-0.3,0-0.7,0.2-0.9,0.5c-0.2,0.4-0.1,0.7-0.1,0.9v2H79z"/>
		<path class="st0" d="M87,10.7c0,1.2-0.7,2-1.9,2c-1.3,0-1.9-0.8-1.9-2c0-1.2,0.7-2,1.9-2C86.3,8.7,87,9.5,87,10.7z M85.1,12.2
			c0.9,0,1.1-0.7,1.1-1.5c0-0.8-0.3-1.5-1.1-1.5c-0.9,0-1.1,0.7-1.1,1.5C83.9,11.5,84.2,12.2,85.1,12.2z"/>
		<path class="st0" d="M90.2,10c0-0.5-0.3-0.8-0.8-0.8c-0.7,0-1,0.6-1,1.5c0,0.9,0.3,1.5,1,1.5c0.5,0,0.8-0.3,0.8-0.9H91
			c-0.1,0.9-0.7,1.4-1.6,1.4c-1.2,0-1.7-0.9-1.7-2c0-1.1,0.6-2.1,1.8-2.1c0.8,0,1.4,0.5,1.5,1.3H90.2z"/>
		<path class="st0" d="M92,12.6V7.1h0.7v2.2h0C93,8.9,93.4,8.7,94,8.7c1,0,1.3,0.7,1.3,1.4v2.6h-0.7v-2.3c0-0.7-0.2-1.1-0.9-1.1
			c-0.3,0-0.7,0.2-0.9,0.5c-0.2,0.4-0.1,0.7-0.1,0.9v2H92z"/>
		<path class="st0" d="M97.8,8.7c0.7,0,1.5,0.3,1.5,1.2h-0.8c0-0.5-0.3-0.6-0.8-0.6c-0.4,0-0.7,0.2-0.7,0.6c0,0.4,0.7,0.5,0.9,0.5
			c0.7,0.2,1.4,0.3,1.4,1.2c0,0.9-0.9,1.2-1.7,1.2c-0.8,0-1.5-0.4-1.5-1.3H97c0,0.5,0.3,0.7,0.8,0.7c0.4,0,0.9-0.2,0.9-0.7
			c0-0.9-2.3-0.2-2.3-1.7C96.3,9,97.1,8.7,97.8,8.7z"/>
		<path class="st0" d="M102.6,10c0-0.5-0.3-0.8-0.8-0.8c-0.7,0-1,0.6-1,1.5c0,0.9,0.3,1.5,1,1.5c0.5,0,0.8-0.3,0.8-0.9h0.7
			c-0.1,0.9-0.7,1.4-1.6,1.4c-1.2,0-1.7-0.9-1.7-2c0-1.1,0.6-2.1,1.8-2.1c0.8,0,1.4,0.5,1.5,1.3H102.6z"/>
		<path class="st0" d="M104.4,12.6V7.1h0.7v2.2h0c0.3-0.4,0.7-0.6,1.2-0.6c1,0,1.3,0.7,1.3,1.4v2.6H107v-2.3c0-0.7-0.2-1.1-0.9-1.1
			c-0.3,0-0.7,0.2-0.9,0.5c-0.2,0.4-0.1,0.7-0.1,0.9v2H104.4z"/>
		<path class="st0" d="M111.4,8.8h0.7v3.8h-0.7V12h0c-0.3,0.5-0.8,0.7-1.3,0.7c-0.8,0-1.3-0.6-1.3-1.4V8.8h0.7V11
			c0,0.7,0.2,1.2,0.8,1.2c0.3,0,0.7-0.2,0.9-0.6c0.1-0.4,0.1-0.8,0.1-0.9V8.8z"/>
		<path class="st0" d="M113.4,12.6V7.1h0.7v5.5H113.4z"/>
		<path class="st0" d="M115.9,10.8c-0.1,0.7,0.2,1.4,1,1.4c0.6,0,0.8-0.2,0.9-0.8h0.8c-0.1,0.9-0.8,1.3-1.7,1.3
			c-1.2,0-1.7-0.9-1.7-2c0-1.1,0.6-2.1,1.8-2.1c1.1,0,1.7,0.8,1.7,1.8v0.4H115.9z M117.8,10.3c0-0.6-0.3-1.1-1-1.1
			c-0.6,0-1,0.5-1,1.1H117.8z"/>
		<path class="st0" d="M125.9,7.1v5.5H125l-2.8-4.7h0v4.7h-0.7V7.1h1l2.7,4.6h0V7.1H125.9z"/>
		<path class="st0" d="M130.8,10.7c0,1.2-0.7,2-1.9,2c-1.3,0-1.9-0.8-1.9-2c0-1.2,0.7-2,1.9-2C130.2,8.7,130.8,9.5,130.8,10.7z
			 M128.9,12.2c0.9,0,1.1-0.7,1.1-1.5c0-0.8-0.3-1.5-1.1-1.5c-0.9,0-1.1,0.7-1.1,1.5C127.8,11.5,128.1,12.2,128.9,12.2z"/>
		<path class="st0" d="M132.5,12.6h-0.7V8.8h0.7v0.7h0c0.1-0.5,0.6-0.8,1.1-0.8c0.1,0,0.2,0,0.3,0v0.7c-0.1,0-0.2,0-0.3,0
			c-0.9,0-1.1,0.5-1.1,1.3V12.6z"/>
		<path class="st0" d="M137.1,7.1h0.7v4.8c0,0.2,0,0.5,0,0.7h-0.7l0-0.6v0h0c-0.3,0.5-0.8,0.7-1.3,0.7c-1.1,0-1.6-1-1.6-2
			c0-1,0.5-2,1.7-2c0.5,0,1,0.2,1.2,0.6h0V7.1z M136,12.2c0.9,0,1.1-0.8,1.1-1.5c0-0.7-0.3-1.5-1.1-1.5c-0.9,0-1.1,0.8-1.1,1.5
			C135,11.4,135.2,12.2,136,12.2z"/>
		<path class="st0" d="M144.8,8.8l-1.4,3.8h-0.8l-0.9-3.2h0l-1,3.2h-0.8l-1.3-3.8h0.8l0.9,3.1h0l1-3.1h0.9l0.9,3h0l1-3H144.8z"/>
		<path class="st0" d="M146,10.8c-0.1,0.7,0.2,1.4,1,1.4c0.6,0,0.8-0.2,0.9-0.8h0.8c-0.1,0.9-0.8,1.3-1.7,1.3c-1.2,0-1.7-0.9-1.7-2
			c0-1.1,0.6-2.1,1.8-2.1c1.1,0,1.7,0.8,1.7,1.8v0.4H146z M147.9,10.3c0-0.6-0.3-1.1-1-1.1c-0.6,0-1,0.5-1,1.1H147.9z"/>
		<path class="st0" d="M151,8.7c0.7,0,1.5,0.3,1.5,1.2h-0.8c0-0.5-0.3-0.6-0.8-0.6c-0.4,0-0.7,0.2-0.7,0.6c0,0.4,0.7,0.5,0.9,0.5
			c0.7,0.2,1.4,0.3,1.4,1.2c0,0.9-0.9,1.2-1.7,1.2c-0.8,0-1.5-0.4-1.5-1.3h0.8c0,0.5,0.3,0.7,0.8,0.7c0.4,0,0.9-0.2,0.9-0.7
			c0-0.9-2.3-0.2-2.3-1.7C149.5,9,150.3,8.7,151,8.7z"/>
		<path class="st0" d="M153.8,8.8V8l0.7-0.2v1l0.9,0v0.5l-0.9,0v2.5c0,0.3,0.2,0.4,0.5,0.4c0.1,0,0.3,0,0.4,0v0.6
			c-0.2,0-0.3,0-0.5,0c-0.2,0-0.3,0-0.5,0c-0.1,0-0.3-0.1-0.4-0.3c-0.1-0.2-0.2-0.2-0.2-0.7V9.3l-0.7,0V8.8L153.8,8.8z"/>
		<path class="st0" d="M157.6,8.7c0.7,0,1.5,0.3,1.5,1.2h-0.8c0-0.5-0.3-0.6-0.8-0.6c-0.4,0-0.7,0.2-0.7,0.6c0,0.4,0.7,0.5,0.9,0.5
			c0.7,0.2,1.4,0.3,1.4,1.2c0,0.9-0.9,1.2-1.7,1.2c-0.8,0-1.5-0.4-1.5-1.3h0.8c0,0.5,0.3,0.7,0.8,0.7c0.4,0,0.9-0.2,0.9-0.7
			c0-0.9-2.3-0.2-2.3-1.7C156.1,9,156.9,8.7,157.6,8.7z"/>
		<path class="st0" d="M162.4,10c0-0.5-0.3-0.8-0.8-0.8c-0.7,0-1,0.6-1,1.5c0,0.9,0.3,1.5,1,1.5c0.5,0,0.8-0.3,0.8-0.9h0.7
			c-0.1,0.9-0.7,1.4-1.6,1.4c-1.2,0-1.7-0.9-1.7-2c0-1.1,0.6-2.1,1.8-2.1c0.8,0,1.4,0.5,1.5,1.3H162.4z"/>
		<path class="st0" d="M164.2,12.6V7.1h0.7v2.2h0c0.3-0.4,0.7-0.6,1.2-0.6c1,0,1.3,0.7,1.3,1.4v2.6h-0.7v-2.3c0-0.7-0.2-1.1-0.9-1.1
			c-0.3,0-0.7,0.2-0.9,0.5c-0.2,0.4-0.1,0.7-0.1,0.9v2H164.2z"/>
		<path class="st0" d="M174.2,8.8l-1.4,3.8h-0.8l-0.9-3.2h0l-1,3.2h-0.8L168,8.8h0.8l0.9,3.1h0l1-3.1h0.9l0.9,3h0l1-3H174.2z"/>
		<path class="st0" d="M175.4,10.8c-0.1,0.7,0.2,1.4,1,1.4c0.6,0,0.8-0.2,0.9-0.8h0.8c-0.1,0.9-0.8,1.3-1.7,1.3
			c-1.2,0-1.7-0.9-1.7-2c0-1.1,0.6-2.1,1.8-2.1c1.1,0,1.7,0.8,1.7,1.8v0.4H175.4z M177.4,10.3c0-0.6-0.3-1.1-1-1.1
			c-0.6,0-1,0.5-1,1.1H177.4z"/>
		<path class="st0" d="M179,7.1h0.9v0.8H179V7.1z M179.1,12.6V8.8h0.7v3.8H179.1z"/>
		<path class="st0" d="M183.7,12.6h-2.8v-0.5l1.9-2.8h-1.9V8.8h2.7v0.5l-1.9,2.8h2V12.6z"/>
		<path class="st0" d="M62.2,21.3v-5.5h0.8v2.4h2.6v-2.4h0.8v5.5h-0.8v-2.5h-2.6v2.5H62.2z"/>
		<path class="st0" d="M71.1,19.3c0,1.2-0.7,2-1.9,2c-1.3,0-1.9-0.8-1.9-2c0-1.2,0.7-2,1.9-2C70.5,17.3,71.1,18.1,71.1,19.3z
			 M69.2,20.8c0.9,0,1.1-0.7,1.1-1.5c0-0.8-0.3-1.5-1.1-1.5s-1.1,0.7-1.1,1.5C68.1,20.2,68.4,20.8,69.2,20.8z"/>
		<path class="st0" d="M74.4,18.6c0-0.5-0.3-0.8-0.8-0.8c-0.7,0-1,0.6-1,1.5c0,0.9,0.3,1.5,1,1.5c0.5,0,0.8-0.3,0.8-0.9h0.7
			c-0.1,0.9-0.7,1.4-1.6,1.4c-1.2,0-1.7-0.9-1.7-2c0-1.1,0.6-2.1,1.8-2.1c0.8,0,1.4,0.5,1.5,1.3H74.4z"/>
		<path class="st0" d="M76.1,21.3v-5.5h0.7v2.2h0c0.3-0.4,0.7-0.6,1.2-0.6c1,0,1.3,0.7,1.3,1.4v2.6h-0.7V19c0-0.7-0.2-1.1-0.9-1.1
			c-0.3,0-0.7,0.2-0.9,0.5c-0.2,0.4-0.1,0.7-0.1,0.9v2H76.1z"/>
		<path class="st0" d="M81.9,17.3c0.7,0,1.5,0.3,1.5,1.2h-0.8c0-0.5-0.3-0.7-0.8-0.7c-0.4,0-0.7,0.2-0.7,0.6c0,0.4,0.7,0.5,0.9,0.5
			c0.7,0.2,1.4,0.3,1.4,1.2c0,0.9-0.9,1.2-1.7,1.2c-0.8,0-1.5-0.4-1.5-1.3h0.8c0,0.5,0.3,0.7,0.8,0.7c0.4,0,0.9-0.2,0.9-0.7
			c0-0.9-2.3-0.2-2.3-1.7C80.4,17.7,81.2,17.3,81.9,17.3z"/>
		<path class="st0" d="M86.7,18.6c0-0.5-0.3-0.8-0.8-0.8c-0.7,0-1,0.6-1,1.5c0,0.9,0.3,1.5,1,1.5c0.5,0,0.8-0.3,0.8-0.9h0.7
			c-0.1,0.9-0.7,1.4-1.6,1.4c-1.2,0-1.7-0.9-1.7-2c0-1.1,0.6-2.1,1.8-2.1c0.8,0,1.4,0.5,1.5,1.3H86.7z"/>
		<path class="st0" d="M88.5,21.3v-5.5h0.7v2.2h0c0.3-0.4,0.7-0.6,1.2-0.6c1,0,1.3,0.7,1.3,1.4v2.6h-0.7V19c0-0.7-0.2-1.1-0.9-1.1
			c-0.3,0-0.7,0.2-0.9,0.5c-0.2,0.4-0.1,0.7-0.1,0.9v2H88.5z"/>
		<path class="st0" d="M95.5,17.4h0.7v3.8h-0.7v-0.6h0c-0.3,0.5-0.8,0.7-1.3,0.7c-0.8,0-1.3-0.6-1.3-1.4v-2.6h0.7v2.3
			c0,0.7,0.2,1.2,0.8,1.2c0.3,0,0.7-0.2,0.9-0.6c0.1-0.4,0.1-0.8,0.1-0.9V17.4z"/>
		<path class="st0" d="M97.5,21.3v-5.5h0.7v5.5H97.5z"/>
		<path class="st0" d="M99.9,19.5c-0.1,0.7,0.2,1.4,1,1.4c0.6,0,0.8-0.2,0.9-0.8h0.8c-0.1,0.9-0.8,1.3-1.7,1.3c-1.2,0-1.7-0.9-1.7-2
			c0-1.1,0.6-2.1,1.8-2.1c1.1,0,1.7,0.8,1.7,1.8v0.4H99.9z M101.9,19c0-0.6-0.3-1.1-1-1.1c-0.6,0-1,0.5-1,1.1H101.9z"/>
		<path class="st0" d="M105.7,21.3v-3.3H105v-0.5h0.7v-0.7c0-0.8,0.7-1.1,1.2-1.1c0.2,0,0.3,0,0.5,0.1v0.6c-0.1,0-0.2,0-0.4,0
			c-0.4,0-0.7,0.1-0.6,0.5v0.6h0.9v0.5h-0.9v3.3H105.7z"/>
		<path class="st0" d="M110.7,17.4h0.7v3.8h-0.7v-0.6h0c-0.3,0.5-0.8,0.7-1.3,0.7c-0.8,0-1.3-0.6-1.3-1.4v-2.6h0.7v2.3
			c0,0.7,0.2,1.2,0.8,1.2c0.3,0,0.7-0.2,0.9-0.6c0.1-0.4,0.1-0.8,0.1-0.9V17.4z M108.7,16.5v-0.8h0.7v0.8H108.7z M110.2,16.5v-0.8
			h0.7v0.8H110.2z"/>
		<path class="st0" d="M113.7,21.3h-0.7v-3.8h0.7v0.7h0c0.1-0.5,0.6-0.8,1.1-0.8c0.1,0,0.2,0,0.3,0v0.7c-0.1,0-0.2,0-0.3,0
			c-0.9,0-1.1,0.5-1.1,1.3V21.3z"/>
		<path class="st0" d="M121.2,17.1c-0.1-0.7-0.7-0.8-1.3-0.8c-1.4,0-1.8,1.2-1.8,2.2c0.1,1.4,0.5,2.2,2.1,2.2c0.4,0,0.7-0.1,1.1-0.2
			V19H120v-0.7h2v2.7c-0.6,0.2-1.3,0.3-1.9,0.3c-0.8,0-1.4-0.1-2-0.6c-0.6-0.5-0.8-1.5-0.8-2.2c0-0.6,0.2-1.2,0.5-1.7
			c0.5-0.8,1.3-1.2,2.2-1.2c0.9,0,2,0.4,2,1.5H121.2z"/>
		<path class="st0" d="M124,19.5c-0.1,0.7,0.2,1.4,1,1.4c0.6,0,0.8-0.2,0.9-0.8h0.8c-0.1,0.9-0.8,1.3-1.7,1.3c-1.2,0-1.7-0.9-1.7-2
			c0-1.1,0.6-2.1,1.8-2.1c1.1,0,1.7,0.8,1.7,1.8v0.4H124z M125.9,19c0-0.6-0.3-1.1-1-1.1c-0.6,0-1,0.5-1,1.1H125.9z"/>
		<path class="st0" d="M129.1,17.3c0.7,0,1.5,0.3,1.5,1.2h-0.8c0-0.5-0.3-0.7-0.8-0.7c-0.4,0-0.7,0.2-0.7,0.6c0,0.4,0.7,0.5,0.9,0.5
			c0.7,0.2,1.4,0.3,1.4,1.2c0,0.9-0.9,1.2-1.7,1.2c-0.8,0-1.5-0.4-1.5-1.3h0.8c0,0.5,0.3,0.7,0.8,0.7c0.4,0,0.9-0.2,0.9-0.7
			c0-0.9-2.3-0.2-2.3-1.7C127.6,17.7,128.4,17.3,129.1,17.3z"/>
		<path class="st0" d="M131.8,17.4v-0.8l0.7-0.2v1l0.9,0v0.5l-0.9,0v2.5c0,0.3,0.2,0.4,0.5,0.4c0.1,0,0.3,0,0.4,0v0.6
			c-0.2,0-0.3,0-0.5,0c-0.2,0-0.3,0-0.5,0c-0.1,0-0.3-0.1-0.4-0.3c-0.1-0.2-0.2-0.2-0.2-0.7v-2.4l-0.7,0v-0.5L131.8,17.4z"/>
		<path class="st0" d="M136.6,18.9c0-0.7,0-1.1-0.8-1.1c-0.4,0-0.7,0.2-0.7,0.6h-0.8c0-0.8,0.7-1.1,1.5-1.1c0.8,0,1.6,0.2,1.6,1.3
			v1.8c0,0.2,0,0.5,0,0.8h-0.5c-0.1,0-0.2,0-0.2-0.1c0-0.2,0-0.3,0-0.5h0c-0.2,0.5-0.7,0.7-1.2,0.7c-0.7,0-1.3-0.3-1.3-1.1
			c0-1.1,1-1.4,1.9-1.4H136.6z M135.9,19.4c-0.4,0-1,0.2-1,0.7c0,0.5,0.3,0.7,0.8,0.7c0.9,0,1-0.7,1-1.5H135.9z"/>
		<path class="st0" d="M138.7,21.3v-5.5h0.7v5.5H138.7z"/>
		<path class="st0" d="M140.9,17.4v-0.8l0.7-0.2v1l0.9,0v0.5l-0.9,0v2.5c0,0.3,0.2,0.4,0.5,0.4c0.1,0,0.3,0,0.4,0v0.6
			c-0.2,0-0.3,0-0.5,0c-0.2,0-0.3,0-0.5,0c-0.1,0-0.3-0.1-0.4-0.3c-0.1-0.2-0.2-0.2-0.2-0.7v-2.4l-0.7,0v-0.5L140.9,17.4z"/>
		<path class="st0" d="M146.1,17.4h0.7v3.8h-0.7v-0.6h0c-0.3,0.5-0.8,0.7-1.3,0.7c-0.8,0-1.3-0.6-1.3-1.4v-2.6h0.7v2.3
			c0,0.7,0.2,1.2,0.8,1.2c0.3,0,0.7-0.2,0.9-0.6c0.1-0.4,0.1-0.8,0.1-0.9V17.4z"/>
		<path class="st0" d="M149,18L149,18c0.3-0.5,0.8-0.7,1.2-0.7c0.3,0,1.5,0.1,1.5,1.3v2.7h-0.7v-2.4c0-0.6-0.3-1-0.9-1
			c0,0-0.4,0-0.7,0.3c-0.1,0.1-0.3,0.3-0.3,1v2.1h-0.7v-3.8h0.7V18z"/>
		<path class="st0" d="M155.7,17.4h0.7c0,0.2,0,0.5,0,0.7v2.7c0,1.4-0.6,2-2,2c-0.8,0-1.4-0.4-1.4-1.2h0.8c0,0.5,0.4,0.7,0.9,0.7
			c1,0,1-0.9,1.1-1.7h0c-0.2,0.5-0.8,0.7-1.3,0.7c-1.2,0-1.6-0.8-1.6-1.9c0-1.1,0.6-2,1.8-2c0.4,0,0.8,0.2,1,0.5
			c0,0,0.1,0.2,0.1,0.2L155.7,17.4z M154.6,20.7c0.8,0,1.1-0.7,1.1-1.4c0-0.7-0.3-1.4-1.1-1.4c-0.8,0-1.1,0.8-1.1,1.4
			C153.5,19.9,153.7,20.7,154.6,20.7z"/>
		<path class="st0" d="M161.7,17.4h0.7v3.8h-0.7v-0.6h0c-0.3,0.5-0.8,0.7-1.3,0.7c-0.8,0-1.3-0.6-1.3-1.4v-2.6h0.7v2.3
			c0,0.7,0.2,1.2,0.8,1.2c0.3,0,0.7-0.2,0.9-0.6c0.1-0.4,0.1-0.8,0.1-0.9V17.4z"/>
		<path class="st0" d="M164.6,18L164.6,18c0.3-0.5,0.8-0.7,1.2-0.7c0.3,0,1.5,0.1,1.5,1.3v2.7h-0.7v-2.4c0-0.6-0.3-1-0.9-1
			c0,0-0.4,0-0.7,0.3c-0.1,0.1-0.3,0.3-0.3,1v2.1h-0.7v-3.8h0.7V18z"/>
		<path class="st0" d="M171.2,15.7h0.7v4.8c0,0.2,0,0.5,0,0.7h-0.7l0-0.6v0h0c-0.3,0.5-0.8,0.7-1.3,0.7c-1.1,0-1.6-1-1.6-2
			c0-1,0.5-2,1.7-2c0.5,0,1,0.2,1.2,0.6h0V15.7z M170.1,20.9c0.9,0,1.1-0.8,1.1-1.5c0-0.7-0.3-1.5-1.1-1.5c-0.9,0-1.1,0.8-1.1,1.5
			C169,20.1,169.3,20.9,170.1,20.9z"/>
		<path class="st0" d="M175.2,21.3v-5.5h0.8v2.4l2.3-2.4h1l-2.5,2.5l2.7,3.1h-1.1l-2.5-2.9v2.9H175.2z"/>
		<path class="st0" d="M183,17.4h0.7v3.8H183v-0.6h0c-0.3,0.5-0.8,0.7-1.3,0.7c-0.8,0-1.3-0.6-1.3-1.4v-2.6h0.7v2.3
			c0,0.7,0.2,1.2,0.8,1.2c0.3,0,0.7-0.2,0.9-0.6c0.1-0.4,0.1-0.8,0.1-0.9V17.4z"/>
		<path class="st0" d="M185.9,18L185.9,18c0.3-0.5,0.8-0.7,1.2-0.7c0.3,0,1.5,0.1,1.5,1.3v2.7h-0.7v-2.4c0-0.6-0.3-1-0.9-1
			c0,0-0.4,0-0.7,0.3c-0.1,0.1-0.3,0.3-0.3,1v2.1h-0.7v-3.8h0.7V18z"/>
		<path class="st0" d="M191.1,17.3c0.7,0,1.5,0.3,1.5,1.2h-0.8c0-0.5-0.3-0.7-0.8-0.7c-0.4,0-0.7,0.2-0.7,0.6c0,0.4,0.7,0.5,0.9,0.5
			c0.7,0.2,1.4,0.3,1.4,1.2c0,0.9-0.9,1.2-1.7,1.2c-0.8,0-1.5-0.4-1.5-1.3h0.8c0,0.5,0.3,0.7,0.8,0.7c0.4,0,0.9-0.2,0.9-0.7
			c0-0.9-2.3-0.2-2.3-1.7C189.6,17.7,190.4,17.3,191.1,17.3z"/>
		<path class="st0" d="M193.9,17.4v-0.8l0.7-0.2v1l0.9,0v0.5l-0.9,0v2.5c0,0.3,0.2,0.4,0.5,0.4c0.1,0,0.3,0,0.4,0v0.6
			c-0.2,0-0.3,0-0.5,0c-0.2,0-0.3,0-0.5,0c-0.1,0-0.3-0.1-0.4-0.3c-0.1-0.2-0.2-0.2-0.2-0.7v-2.4l-0.7,0v-0.5L193.9,17.4z"/>
	</g>
	<g>
		<rect x="20.4" y="0" class="st0" width="1" height="28.3"/>
		<g>
			<path class="st0" d="M5.8,9.4c0.5-0.6,1.5-2.7,4.6-2.7c2.2,0,3.3,0.9,3.8,1.3c1.3,1.3,1.4,3.2,1.4,4.2v9h-5.6v-7.9
				c0-0.2,0-2-1.9-2c-2,0-2,1.8-2,2.3v7.6H0.6V7.1h5.3V9.4z"/>
		</g>
		<path class="st0" d="M46.1,6.8c-1,0-1.9,0.8-1.9,1.9c0,1,0.8,1.9,1.9,1.9c1,0,1.4-0.7,1.4-0.7c0.5,1.7-2.3,10.2-6.3,10.2
			c-1.3,0-1.7-1-1.7-2.4c0-1.6,0.5-3.2,1-5.4c0.6-2.1,1.1-4.2,1.5-5.3h-3.8c-0.5,1.9-4.2,12.7-7.3,12.7c-0.4,0-0.8-0.4-0.8-1.2
			c0-0.4,0.4-1.9,0.5-2.4l1.2-4.2c0.3-0.9,0.7-2,0.7-2.9c0-1.5-1-2.3-2.2-2.3c-3.4,0-4.8,3.1-5.5,4.3l0.6,0.4
			c0.3-0.5,1.8-3.1,2.9-3.1c0.2,0,0.3,0.2,0.3,0.7c0,0.4-0.2,1.2-0.4,1.9l-1.3,4.3c-0.2,0.8-0.7,2.3-0.7,3.4c0,2,1.5,3,2.8,3
			c4.8,0,7-5.9,7.7-7.6l0.1,0.1c-0.1,0.3-0.5,2.1-0.5,3c0,2.6,1.2,4.5,3.7,4.5C47.2,21.7,51.2,6.8,46.1,6.8z"/>
	</g>
</g>
</svg>
