<?xml version="1.0" encoding="utf-8"?>
<!-- Generator: Adobe Illustrator 27.5.0, SVG Export Plug-In . SVG Version: 6.00 Build 0)  -->
<svg version="1.1" id="Ebene_1" xmlns="http://www.w3.org/2000/svg" xmlns:xlink="http://www.w3.org/1999/xlink" x="0px" y="0px"
	 viewBox="0 0 217 50" style="enable-background:new 0 0 217 50;" xml:space="preserve">
<style type="text/css">
	.st0{fill:#FFFFFF;}
</style>
<g>
	<g>
		<g>
			<g>
				<g>
					<g>
						<path class="st0" d="M35.4,49.6h1.7V0.7h-1.7V49.6z"/>
						<path class="st0" d="M10,16.9c0.8-1.1,2.6-4.6,8-4.6c3.8,0,5.8,1.5,6.6,2.2c2.3,2.2,2.5,5.5,2.5,7.3v15.5h-9.7V23.7
							c0-0.3,0-3.5-3.3-3.5c-3.4,0-3.5,3.1-3.5,4v13.1H0.8V12.9H10V16.9"/>
						<path class="st0" d="M80.2,12.4c-1.8,0-3.3,1.5-3.3,3.3s1.5,3.3,3.3,3.3c1.7,0,2.4-1.2,2.4-1.1c0.9,2.8-4.1,17.6-10.9,17.6
							c-2.2,0-2.9-1.8-2.9-4.1c0-2.7,0.8-5.5,1.8-9.2c1.1-3.7,2-7.2,2.5-9.1h-6.6c-0.9,3.2-7.3,22-12.8,22c-0.7,0-1.4-0.7-1.4-2
							c0-0.7,0.6-3.3,1-4.2l2.2-7.3c0.5-1.5,1.2-3.5,1.2-5c0-2.6-1.8-4-3.9-4c-6,0-8.4,5.3-9.7,7.4l1,0.6c0.6-0.9,3.2-5.4,5-5.4
							c0.3,0,0.5,0.3,0.5,1.2c0,0.6-0.4,2-0.7,3.3L46.5,27c-0.4,1.4-1.3,4-1.3,5.8c0,3.4,2.6,5.2,5,5.2c8.5,0,12.1-10.1,13.3-13
							l0.1,0.1c-0.2,0.6-0.9,3.6-0.9,5.2c0,4.5,2,7.7,6.5,7.7C82,38,89,12.4,80.2,12.4"/>
						<path class="st0" d="M108.2,22.4v-9.5h5.7V14h-4.4v3h4.1v1.2h-4.1v4.2L108.2,22.4"/>
						<path class="st0" d="M119,18.3c0-1.1-0.1-1.8-1.4-1.8c-0.6,0-1.2,0.4-1.3,1.1H115c0.1-1.5,1.2-2,2.5-2c1.4,0,2.7,0.4,2.7,2.3
							V21c0,0.3,0,0.8,0.1,1.4h-0.9c-0.1,0-0.3,0.1-0.4-0.1c0-0.3-0.1-0.6-0.1-0.9c-0.4,0.8-1.2,1.2-2.1,1.2c-1.2,0-2.3-0.6-2.3-1.9
							c0-1.9,1.7-2.4,3.3-2.4L119,18.3L119,18.3z M117.7,19.2c-0.8,0-1.8,0.3-1.8,1.3c0,0.8,0.6,1.2,1.3,1.2c1.5,0,1.8-1.3,1.7-2.5
							H117.7z"/>
						<path class="st0" d="M126.3,17.9c-0.1-0.8-0.5-1.4-1.4-1.4c-1.2,0-1.7,1-1.7,2.6s0.5,2.6,1.7,2.6c0.8,0,1.4-0.5,1.4-1.5h1.3
							c-0.1,1.5-1.2,2.4-2.7,2.4c-2.1,0-3-1.5-3-3.5c0-1.9,1-3.6,3.1-3.6c1.4,0,2.5,0.9,2.5,2.3h-1.2"/>
						<path class="st0" d="M129.4,22.4v-9.5h1.3v3.8c0.5-0.7,1.2-1.1,2.2-1.1c1.7,0,2.3,1.1,2.3,2.3v4.5h-1.3v-3.9
							c0-1.2-0.3-1.9-1.5-1.9c-0.5,0-1.3,0.4-1.5,0.9c-0.3,0.7-0.2,1.2-0.2,1.5v3.4L129.4,22.4"/>
						<path class="st0" d="M137.5,22.4v-9.5h1.3v3.8c0.5-0.7,1.2-1.1,2.2-1.1c1.7,0,2.3,1.1,2.3,2.3v4.5H142v-3.9
							c0-1.2-0.3-1.9-1.5-1.9c-0.5,0-1.3,0.4-1.5,0.9c-0.3,0.7-0.2,1.2-0.2,1.5v3.4L137.5,22.4"/>
						<path class="st0" d="M151.5,19.1c0,2.1-1.1,3.5-3.3,3.5s-3.3-1.5-3.3-3.5s1.1-3.5,3.3-3.5S151.5,17.1,151.5,19.1z M148.2,21.7
							c1.5,0,2-1.2,2-2.6s-0.5-2.6-2-2.6s-2,1.2-2,2.6S146.6,21.7,148.2,21.7z"/>
						<path class="st0" d="M157.1,17.9c-0.1-0.8-0.5-1.4-1.4-1.4c-1.2,0-1.7,1-1.7,2.6s0.5,2.6,1.7,2.6c0.8,0,1.4-0.5,1.4-1.5h1.3
							c-0.1,1.5-1.2,2.4-2.7,2.4c-2.1,0-3-1.5-3-3.5c0-1.9,1-3.6,3.1-3.6c1.4,0,2.5,0.9,2.5,2.3h-1.2"/>
						<path class="st0" d="M160.2,22.4v-9.5h1.3v3.8c0.5-0.7,1.2-1.1,2.2-1.1c1.8,0,2.3,1.1,2.3,2.3v4.5h-1.3v-3.9
							c0-1.2-0.3-1.9-1.5-1.9c-0.5,0-1.3,0.4-1.5,0.9c-0.3,0.7-0.2,1.2-0.2,1.5v3.4L160.2,22.4"/>
						<path class="st0" d="M170.3,15.6c1.3,0,2.7,0.5,2.6,2h-1.3c0.1-0.8-0.6-1.1-1.3-1.1s-1.2,0.3-1.2,1.1c0,0.7,1.1,0.8,1.6,0.9
							c1.1,0.4,2.4,0.5,2.4,2c0,1.6-1.6,2.1-3,2.1s-2.6-0.6-2.6-2.2h1.3c0,0.8,0.6,1.3,1.4,1.3c0.7,0,1.5-0.3,1.5-1.1
							c0-1.5-4.1-0.4-4.1-3C167.7,16.2,169.1,15.6,170.3,15.6"/>
						<path class="st0" d="M178.7,17.9c-0.1-0.8-0.5-1.4-1.4-1.4c-1.2,0-1.7,1-1.7,2.6s0.5,2.6,1.7,2.6c0.8,0,1.4-0.5,1.4-1.5h1.3
							c-0.1,1.5-1.2,2.4-2.7,2.4c-2.1,0-3-1.5-3-3.5c0-1.9,1-3.6,3.1-3.6c1.4,0,2.5,0.9,2.5,2.3h-1.2"/>
						<path class="st0" d="M181.8,22.4v-9.5h1.3v3.8c0.5-0.7,1.2-1.1,2.2-1.1c1.7,0,2.3,1.1,2.3,2.3v4.5h-1.3v-3.9
							c0-1.2-0.3-1.9-1.5-1.9c-0.5,0-1.3,0.4-1.5,0.9c-0.3,0.7-0.2,1.2-0.2,1.5v3.4L181.8,22.4"/>
						<path class="st0" d="M194.1,15.8h1.3v6.6h-1.2v-1c-0.5,0.8-1.4,1.2-2.3,1.2c-1.4,0-2.2-1.1-2.2-2.4v-4.4h1.3v3.9
							c0,1.1,0.3,2,1.5,2c0.5,0,1.2-0.3,1.5-1c0.2-0.6,0.3-1.4,0.3-1.6v-3.3"/>
						<path class="st0" d="M197.5,22.4h1.2v-9.5h-1.2V22.4z"/>
						<path class="st0" d="M201.9,19.4c-0.1,1.2,0.4,2.4,1.7,2.4c1,0,1.5-0.4,1.6-1.3h1.3c-0.2,1.5-1.4,2.3-3,2.3
							c-2.1,0-3-1.5-3-3.5c0-1.9,1-3.6,3.1-3.6c2,0,2.9,1.3,2.9,3.1v0.6H201.9z M205.3,18.5c0-1.1-0.5-2-1.7-2c-1.1,0-1.7,0.9-1.7,2
							H205.3z"/>
						<path class="st0" d="M115.9,27.8v9.5h-1.6l-4.9-8.1v8.1h-1.2v-9.5h1.8l4.7,7.9v-7.9H115.9"/>
						<path class="st0" d="M124.4,34c0,2.1-1.1,3.5-3.3,3.5s-3.3-1.5-3.3-3.5c0-2.1,1.1-3.5,3.3-3.5S124.4,32,124.4,34z M121.1,36.6
							c1.5,0,2-1.2,2-2.6s-0.5-2.6-2-2.6s-2,1.2-2,2.6S119.6,36.6,121.1,36.6z"/>
						<path class="st0" d="M127.4,37.3h-1.3v-6.6h1.3V32c0.2-0.9,1-1.4,2-1.4h0.4v1.2c-0.2-0.1-0.4-0.1-0.5-0.1
							c-1.6,0.1-1.9,0.9-1.9,2.3V37.3"/>
						<path class="st0" d="M135.4,27.8h1.3v8.4c0,0.4,0,0.8,0.1,1.2h-1.3v-1.1c-0.5,0.9-1.3,1.3-2.3,1.3c-2,0-2.8-1.8-2.8-3.5
							c0-1.8,0.9-3.5,3-3.5c0.9,0,1.7,0.3,2.1,1.1L135.4,27.8L135.4,27.8z M133.5,36.7c1.5,0,1.9-1.4,1.9-2.7c0-1.2-0.5-2.6-1.9-2.6
							c-1.5,0-1.9,1.4-1.9,2.6S132.1,36.7,133.5,36.7z"/>
						<path class="st0" d="M148.7,30.7l-2.4,6.6h-1.4l-1.6-5.4l-1.7,5.4h-1.5l-2.2-6.6h1.3l1.7,5.3l1.7-5.3h1.6l1.5,5.2l1.7-5.2
							H148.7"/>
						<path class="st0" d="M150.8,34.3c-0.1,1.2,0.4,2.4,1.7,2.4c1,0,1.5-0.4,1.6-1.3h1.3c-0.2,1.5-1.4,2.3-3,2.3
							c-2.1,0-3-1.5-3-3.5c0-1.9,1-3.6,3.1-3.6c2,0,2.9,1.3,2.9,3.1v0.6H150.8z M154.2,33.4c0-1.1-0.5-2-1.7-2c-1.1,0-1.7,0.9-1.7,2
							H154.2z"/>
						<path class="st0" d="M159.5,30.5c1.3,0,2.7,0.5,2.6,2h-1.3c0.1-0.8-0.6-1.1-1.3-1.1s-1.2,0.3-1.2,1.1c0,0.7,1.1,0.8,1.6,0.9
							c1.1,0.4,2.4,0.5,2.4,2c0,1.6-1.6,2.1-3,2.1s-2.6-0.6-2.6-2.2h1.3c0,0.8,0.6,1.3,1.4,1.3c0.7,0,1.5-0.3,1.5-1.1
							c0-1.5-4.1-0.4-4.1-3C156.9,31.1,158.3,30.5,159.5,30.5"/>
						<path class="st0" d="M164.5,30.7v-1.4l1.3-0.4v1.8h1.5v0.9h-1.5v4.3c0,0.5,0.4,0.7,0.8,0.7c0.2,0,0.5,0,0.7-0.1v1
							c-0.3,0-0.6,0.1-0.9,0.1c-0.3,0-0.5,0-0.9-0.1c-0.2,0-0.5-0.1-0.7-0.4s-0.3-0.3-0.3-1.2v-4.2h-1.1v-0.9L164.5,30.7"/>
						<path class="st0" d="M171.1,30.5c1.3,0,2.7,0.5,2.6,2h-1.3c0.1-0.8-0.6-1.1-1.3-1.1s-1.2,0.3-1.2,1.1c0,0.7,1.1,0.8,1.6,0.9
							c1.1,0.4,2.4,0.5,2.4,2c0,1.6-1.6,2.1-3,2.1s-2.6-0.6-2.6-2.2h1.3c0,0.8,0.6,1.3,1.4,1.3c0.7,0,1.5-0.3,1.5-1.1
							c0-1.5-4.1-0.4-4.1-3C168.5,31.1,169.9,30.5,171.1,30.5"/>
						<path class="st0" d="M179.5,32.8c-0.1-0.8-0.5-1.4-1.4-1.4c-1.2,0-1.7,1-1.7,2.6s0.5,2.6,1.7,2.6c0.8,0,1.4-0.5,1.4-1.5h1.3
							c-0.1,1.5-1.2,2.4-2.7,2.4c-2.1,0-3-1.5-3-3.5c0-1.9,1-3.6,3.1-3.6c1.4,0,2.5,0.9,2.6,2.3h-1.3"/>
						<path class="st0" d="M182.5,37.3v-9.5h1.3v3.8c0.5-0.7,1.2-1.1,2.2-1.1c1.7,0,2.3,1.1,2.3,2.3v4.5H187v-3.9
							c0-1.2-0.3-1.9-1.5-1.9c-0.5,0-1.3,0.4-1.5,0.9c-0.3,0.7-0.2,1.2-0.2,1.5v3.4L182.5,37.3"/>
						<path class="st0" d="M200.1,30.7l-2.4,6.6h-1.4l-1.6-5.4l-1.7,5.4h-1.5l-2.2-6.6h1.4l1.6,5.3l1.7-5.3h1.6l1.5,5.2l1.7-5.2
							H200.1"/>
						<path class="st0" d="M202.2,34.3c-0.1,1.2,0.4,2.4,1.7,2.4c1,0,1.5-0.4,1.6-1.3h1.3c-0.2,1.5-1.4,2.3-3,2.3
							c-2.1,0-3-1.5-3-3.5c0-1.9,1-3.6,3.1-3.6c2,0,2.9,1.3,2.9,3.1v0.6H202.2z M205.6,33.4c0-1.1-0.5-2-1.7-2c-1.1,0-1.7,0.9-1.7,2
							H205.6z"/>
						<path class="st0" d="M208.4,29.2h1.5v-1.4h-1.5V29.2z M208.6,37.3h1.3v-6.6h-1.3V37.3z"/>
						<path class="st0" d="M216.6,37.3h-4.9v-0.8l3.4-4.9h-3.3v-0.9h4.6v0.9l-3.3,4.9h3.5V37.3"/>
					</g>
				</g>
			</g>
		</g>
	</g>
</g>
</svg>
