<?xml version="1.0" encoding="utf-8"?>
<!-- Generator: Adobe Illustrator 27.5.0, SVG Export Plug-In . SVG Version: 6.00 Build 0)  -->
<svg version="1.1" id="Ebene_1" xmlns="http://www.w3.org/2000/svg" xmlns:xlink="http://www.w3.org/1999/xlink" x="0px" y="0px"
	 viewBox="0 0 296.3 28.3" style="enable-background:new 0 0 296.3 28.3;" xml:space="preserve">
<style type="text/css">
	.st0{fill:#FFFFFF;}
</style>
<g>
	<g>
		<path class="st0" d="M61.7,15.8h2c0.7,0,1.1,0.1,1.4,0.4c0.2,0.2,0.4,0.6,0.4,1c0,0.9-0.7,1.1-0.9,1.2c0.3,0.1,1.1,0.3,1.1,1.4
			c0,0.8-0.5,1.1-0.7,1.3c-0.4,0.3-0.8,0.3-1.2,0.3h-2V15.8z M62.5,18.1h1.1c0.3,0,1.1,0,1.1-0.9c0-0.8-0.7-0.8-1.1-0.8h-1.1V18.1z
			 M62.5,20.7h1.3c0.6,0,1.1-0.3,1.1-1c0-0.6-0.4-1-1.1-1h-1.3V20.7z"/>
		<path class="st0" d="M69.2,21.3c-0.1-0.2-0.1-0.4-0.1-0.6c-0.3,0.6-0.9,0.7-1.2,0.7c-0.9,0-1.4-0.5-1.4-1.1c0-0.3,0.1-0.8,0.7-1.1
			c0.4-0.2,1-0.3,1.3-0.3c0.2,0,0.3,0,0.5,0c0-0.5,0-0.7-0.1-0.9c-0.1-0.2-0.5-0.3-0.7-0.3c-0.7,0-0.8,0.5-0.8,0.7h-0.7
			c0-0.2,0-0.5,0.3-0.7c0.3-0.3,0.8-0.4,1.2-0.4c0.6,0,1.2,0.2,1.4,0.6c0.1,0.2,0.1,0.4,0.1,0.6l0,1.8c0,0.1,0,0.6,0.1,1H69.2z
			 M68.7,19.4c-0.3,0-1.4,0-1.4,0.8c0,0.2,0.2,0.7,0.8,0.7c0.4,0,0.6-0.1,0.8-0.4c0.2-0.3,0.2-0.5,0.2-1
			C69,19.4,68.9,19.4,68.7,19.4z"/>
		<path class="st0" d="M71.6,20.1c0,0.3,0.1,0.7,0.8,0.7c0.3,0,0.5-0.1,0.7-0.2c0.1-0.1,0.1-0.2,0.1-0.4c0-0.4-0.3-0.4-0.8-0.6
			c-0.8-0.2-1.5-0.3-1.5-1.1c0-0.7,0.6-1.2,1.5-1.2c0.5,0,1.2,0.1,1.4,0.6c0.1,0.2,0.1,0.4,0.1,0.6h-0.7c0-0.6-0.5-0.6-0.7-0.6
			c-0.1,0-0.8,0-0.8,0.6c0,0.4,0.3,0.4,0.5,0.5c1.1,0.3,1.3,0.3,1.5,0.5c0.2,0.2,0.3,0.5,0.3,0.7c0,0.4-0.2,0.8-0.5,1
			c-0.3,0.2-0.7,0.3-1.1,0.3c-0.8,0-1.5-0.3-1.5-1.2H71.6z"/>
		<path class="st0" d="M79.6,15.8h0.7v5.5h-0.7V15.8z"/>
		<path class="st0" d="M75.7,19.5c0,0.8,0.3,1.4,1.1,1.4c0.5,0,0.8-0.2,0.9-0.8h0.7c0,0.2-0.1,0.5-0.3,0.8c-0.2,0.2-0.6,0.5-1.3,0.5
			c-1.2,0-1.8-0.8-1.8-2c0-0.8,0.2-1.4,0.8-1.8c0.4-0.3,0.8-0.3,1.1-0.3c1.7,0,1.7,1.5,1.7,2.2H75.7z M77.7,19c0-0.4-0.1-1.1-1-1.1
			c-0.5,0-1,0.3-1.1,1.1H77.7z"/>
	</g>
	<g>
		<rect x="19.8" class="st0" width="1" height="28.3"/>
		<path class="st0" d="M5.3,9.4c0.5-0.6,1.5-2.7,4.6-2.7c2.2,0,3.3,0.9,3.8,1.3c1.3,1.3,1.4,3.2,1.4,4.2v9H9.5v-7.9c0-0.2,0-2-1.9-2
			c-2,0-2,1.8-2,2.3v7.6H0V7.1h5.3V9.4z"/>
		<path class="st0" d="M45.5,6.8c-1,0-1.9,0.8-1.9,1.9c0,1,0.8,1.9,1.9,1.9c1,0,1.4-0.7,1.4-0.7c0.5,1.7-2.3,10.2-6.3,10.2
			c-1.3,0-1.7-1-1.7-2.4c0-1.6,0.5-3.2,1-5.4c0.6-2.1,1.1-4.2,1.5-5.3h-3.8c-0.5,1.9-4.2,12.7-7.3,12.7c-0.4,0-0.8-0.4-0.8-1.2
			c0-0.4,0.4-1.9,0.5-2.4l1.2-4.2c0.3-0.9,0.7-2,0.7-2.9c0-1.5-1-2.3-2.2-2.3c-3.4,0-4.8,3.1-5.5,4.3l0.6,0.4
			c0.3-0.5,1.8-3.1,2.9-3.1C27.8,8.3,28,8.5,28,9c0,0.4-0.2,1.2-0.4,1.9l-1.3,4.3c-0.2,0.8-0.7,2.3-0.7,3.4c0,2,1.5,3,2.8,3
			c4.8,0,7-5.9,7.7-7.6l0.1,0.1c-0.1,0.3-0.5,2.1-0.5,3c0,2.6,1.2,4.5,3.7,4.5C46.6,21.7,50.6,6.8,45.5,6.8z"/>
		<path class="st0" d="M66.2,10.4c0,1.4-0.7,2.3-2.2,2.3c-1.5,0-2.3-0.9-2.2-2.3V7.1h0.8v3.5c0,1,0.6,1.5,1.5,1.5
			c0.9,0,1.4-0.5,1.5-1.5V7.1h0.8V10.4z"/>
		<path class="st0" d="M68.2,9.3L68.2,9.3c0.3-0.5,0.8-0.7,1.2-0.7c0.3,0,1.5,0.1,1.5,1.3v2.7h-0.7v-2.4c0-0.6-0.3-1-0.9-1
			c0,0-0.4,0-0.7,0.3c-0.1,0.1-0.3,0.3-0.3,1v2.1h-0.7V8.8h0.7V9.3z"/>
		<path class="st0" d="M72.2,7.1h0.9v0.8h-0.9V7.1z M72.3,12.6V8.8H73v3.8H72.3z"/>
		<path class="st0" d="M75.5,12.6l-1.6-3.8h0.8l1.2,3.1l1.2-3.1h0.8l-1.7,3.8H75.5z"/>
		<path class="st0" d="M79.2,10.8c-0.1,0.7,0.2,1.4,1,1.4c0.6,0,0.9-0.2,0.9-0.8h0.8c-0.1,0.9-0.8,1.3-1.7,1.3c-1.2,0-1.7-0.9-1.7-2
			c0-1.1,0.6-2.1,1.8-2.1c1.2,0,1.7,0.8,1.7,1.8v0.4H79.2z M81.1,10.3c0-0.6-0.3-1.1-1-1.1c-0.6,0-1,0.5-1,1.1H81.1z"/>
		<path class="st0" d="M83.7,12.6H83V8.8h0.7v0.7h0c0.1-0.5,0.6-0.8,1.1-0.8c0.1,0,0.2,0,0.3,0v0.7c-0.1,0-0.2,0-0.3,0
			c-0.9,0-1.1,0.5-1.1,1.3V12.6z"/>
		<path class="st0" d="M87.1,8.7c0.7,0,1.5,0.3,1.5,1.2h-0.8c0-0.5-0.3-0.7-0.8-0.7c-0.4,0-0.7,0.2-0.7,0.6c0,0.4,0.7,0.5,0.9,0.5
			c0.7,0.2,1.4,0.3,1.4,1.2c0,0.9-0.9,1.2-1.7,1.2c-0.8,0-1.5-0.4-1.5-1.3h0.8c0,0.5,0.3,0.7,0.8,0.7c0.4,0,0.9-0.2,0.9-0.7
			c0-0.9-2.3-0.2-2.3-1.7C85.6,9,86.4,8.7,87.1,8.7z"/>
		<path class="st0" d="M89.6,7.1h0.9v0.8h-0.9V7.1z M89.7,12.6V8.8h0.7v3.8H89.7z"/>
		<path class="st0" d="M91.9,8.8V8l0.7-0.2v1.1l0.9,0v0.5l-0.9,0v2.5c0,0.3,0.2,0.4,0.5,0.4c0.1,0,0.3,0,0.4,0v0.6
			c-0.2,0-0.3,0-0.5,0c-0.2,0-0.3,0-0.5,0c-0.1,0-0.3-0.1-0.4-0.3c-0.1-0.2-0.2-0.2-0.2-0.7V9.3l-0.7,0V8.8L91.9,8.8z"/>
		<path class="st0" d="M95.7,14.1H95l0.6-1.5l-1.6-3.8h0.8l1.2,3l1.2-3H98L95.7,14.1z"/>
		<path class="st0" d="M103.5,10.7c0,1.2-0.7,2-1.9,2c-1.3,0-1.9-0.8-1.9-2c0-1.2,0.7-2,1.9-2C102.8,8.7,103.5,9.5,103.5,10.7z
			 M101.6,12.2c0.9,0,1.1-0.7,1.1-1.5s-0.3-1.5-1.1-1.5c-0.9,0-1.2,0.7-1.2,1.5S100.7,12.2,101.6,12.2z"/>
		<path class="st0" d="M104.9,12.6V9.3h-0.8V8.8h0.8V8c0-0.8,0.7-1.1,1.2-1.1c0.2,0,0.3,0,0.5,0.1v0.6c-0.1,0-0.2,0-0.4,0
			c-0.4,0-0.7,0.1-0.6,0.5v0.6h0.9v0.5h-0.9v3.3H104.9z"/>
		<path class="st0" d="M108.2,12.6l2.3-5.5h0.8l2.2,5.5h-0.8l-0.6-1.4h-2.6l-0.6,1.4H108.2z M109.8,10.5h2.1l-1-2.7L109.8,10.5z"/>
		<path class="st0" d="M114.4,9.5c0-0.2,0-0.5,0-0.7h0.7l0,0.6h0c0.2-0.6,0.7-0.7,1.3-0.7c1.1,0,1.6,1,1.6,2c0,1-0.5,2-1.8,2
			c-0.3,0-0.8-0.2-1.1-0.6h0v1.9h-0.7V9.5z M116.2,9.2c-0.8,0-1.1,0.8-1.1,1.5c0,0.7,0.2,1.5,1,1.5c0.9,0,1.2-0.8,1.2-1.5
			C117.3,10,117.1,9.2,116.2,9.2z"/>
		<path class="st0" d="M119.1,9.5c0-0.2,0-0.5,0-0.7h0.7l0,0.6h0c0.2-0.6,0.7-0.7,1.3-0.7c1.1,0,1.6,1,1.6,2c0,1-0.5,2-1.8,2
			c-0.3,0-0.8-0.2-1.1-0.6h0v1.9h-0.7V9.5z M120.9,9.2c-0.8,0-1.1,0.8-1.1,1.5c0,0.7,0.2,1.5,1,1.5c0.9,0,1.2-0.8,1.2-1.5
			C122,10,121.8,9.2,120.9,9.2z"/>
		<path class="st0" d="M123.9,12.6V7.1h0.7v5.5H123.9z"/>
		<path class="st0" d="M126.1,7.1h0.9v0.8h-0.9V7.1z M126.1,12.6V8.8h0.7v3.8H126.1z"/>
		<path class="st0" d="M128.7,10.8c-0.1,0.7,0.2,1.4,1,1.4c0.6,0,0.9-0.2,0.9-0.8h0.8c-0.1,0.9-0.8,1.3-1.7,1.3
			c-1.2,0-1.7-0.9-1.7-2c0-1.1,0.6-2.1,1.8-2.1c1.1,0,1.7,0.8,1.7,1.8v0.4H128.7z M130.6,10.3c0-0.6-0.3-1.1-1-1.1
			c-0.6,0-1,0.5-1,1.1H130.6z"/>
		<path class="st0" d="M135.1,7.1h0.7v4.9c0,0.2,0,0.5,0,0.7h-0.7l0-0.6v0h0c-0.3,0.5-0.8,0.7-1.3,0.7c-1.1,0-1.6-1.1-1.6-2
			c0-1,0.5-2,1.7-2c0.5,0,1,0.2,1.2,0.6h0V7.1z M134,12.2c0.9,0,1.1-0.8,1.1-1.5c0-0.7-0.3-1.5-1.1-1.5c-0.9,0-1.1,0.8-1.1,1.5
			S133.2,12.2,134,12.2z"/>
		<path class="st0" d="M139.5,11c0,0.8,0.5,1.1,1.2,1.1c0.6,0,1.4-0.2,1.4-1c0-0.5-0.4-0.8-0.9-0.9c-0.9-0.2-2.4-0.4-2.4-1.6
			c0-1.2,1.1-1.6,2.1-1.6c0.9,0,1.9,0.4,1.9,1.5H142c0-0.6-0.6-0.8-1.1-0.8c-0.5,0-1.3,0.2-1.3,0.9c0,0.6,0.4,0.7,0.9,0.8
			c1,0.3,2.4,0.3,2.4,1.7c0,1.3-1.1,1.7-2.2,1.7c-1.2,0-2-0.5-2-1.7H139.5z"/>
		<path class="st0" d="M146.2,10c0-0.5-0.3-0.8-0.8-0.8c-0.7,0-1,0.6-1,1.5c0,0.9,0.3,1.5,1,1.5c0.5,0,0.8-0.3,0.8-0.9h0.7
			c-0.1,0.9-0.7,1.4-1.6,1.4c-1.2,0-1.7-0.9-1.7-2c0-1.1,0.6-2.1,1.8-2.1c0.8,0,1.4,0.5,1.5,1.3H146.2z"/>
		<path class="st0" d="M147.7,7.1h0.9v0.8h-0.9V7.1z M147.8,12.6V8.8h0.7v3.8H147.8z"/>
		<path class="st0" d="M150.5,10.8c-0.1,0.7,0.2,1.4,1,1.4c0.6,0,0.8-0.2,0.9-0.8h0.8c-0.1,0.9-0.8,1.3-1.7,1.3
			c-1.2,0-1.7-0.9-1.7-2c0-1.1,0.6-2.1,1.8-2.1c1.2,0,1.7,0.8,1.7,1.8v0.4H150.5z M152.4,10.3c0-0.6-0.3-1.1-1-1.1
			c-0.6,0-1,0.5-1,1.1H152.4z"/>
		<path class="st0" d="M155,9.3L155,9.3c0.3-0.5,0.8-0.7,1.2-0.7c0.3,0,1.5,0.1,1.5,1.3v2.7H157v-2.4c0-0.6-0.3-1-0.9-1
			c0,0-0.4,0-0.7,0.3c-0.1,0.1-0.3,0.3-0.3,1v2.1h-0.7V8.8h0.7V9.3z"/>
		<path class="st0" d="M161.1,10c0-0.5-0.3-0.8-0.8-0.8c-0.7,0-1,0.6-1,1.5c0,0.9,0.3,1.5,1,1.5c0.5,0,0.8-0.3,0.8-0.9h0.7
			c-0.1,0.9-0.7,1.4-1.6,1.4c-1.2,0-1.7-0.9-1.7-2c0-1.1,0.6-2.1,1.8-2.1c0.8,0,1.4,0.5,1.5,1.3H161.1z"/>
		<path class="st0" d="M163.4,10.8c-0.1,0.7,0.2,1.4,1,1.4c0.6,0,0.9-0.2,0.9-0.8h0.8c-0.1,0.9-0.8,1.3-1.7,1.3
			c-1.2,0-1.7-0.9-1.7-2c0-1.1,0.6-2.1,1.8-2.1c1.2,0,1.7,0.8,1.7,1.8v0.4H163.4z M165.3,10.3c0-0.6-0.3-1.1-1-1.1
			c-0.6,0-1,0.5-1,1.1H165.3z"/>
		<path class="st0" d="M168.5,8.7c0.7,0,1.5,0.3,1.5,1.2h-0.8c0-0.5-0.3-0.7-0.8-0.7c-0.4,0-0.7,0.2-0.7,0.6c0,0.4,0.7,0.5,0.9,0.5
			c0.7,0.2,1.4,0.3,1.4,1.2c0,0.9-0.9,1.2-1.7,1.2c-0.8,0-1.5-0.4-1.5-1.3h0.8c0,0.5,0.3,0.7,0.8,0.7c0.4,0,0.9-0.2,0.9-0.7
			c0-0.9-2.3-0.2-2.3-1.7C167,9,167.8,8.7,168.5,8.7z"/>
		<path class="st0" d="M208.7,7.1v5.5h-1L205,7.9h0v4.7h-0.7V7.1h1.1l2.7,4.6h0V7.1H208.7z"/>
		<path class="st0" d="M213.6,10.7c0,1.2-0.7,2-1.9,2c-1.3,0-1.9-0.8-1.9-2c0-1.2,0.7-2,1.9-2C212.9,8.7,213.6,9.5,213.6,10.7z
			 M211.7,12.2c0.9,0,1.2-0.7,1.2-1.5s-0.3-1.5-1.2-1.5c-0.9,0-1.2,0.7-1.2,1.5S210.8,12.2,211.7,12.2z"/>
		<path class="st0" d="M215.2,12.6h-0.7V8.8h0.7v0.7h0c0.1-0.5,0.6-0.8,1.1-0.8c0.1,0,0.2,0,0.3,0v0.7c-0.1,0-0.2,0-0.3,0
			c-0.9,0-1.1,0.5-1.1,1.3V12.6z"/>
		<path class="st0" d="M217.6,8.8V8l0.7-0.2v1.1l0.9,0v0.5l-0.9,0v2.5c0,0.3,0.2,0.4,0.5,0.4c0.1,0,0.3,0,0.4,0v0.6
			c-0.2,0-0.3,0-0.5,0c-0.2,0-0.3,0-0.5,0c-0.1,0-0.3-0.1-0.4-0.3c-0.1-0.2-0.2-0.2-0.2-0.7V9.3l-0.7,0V8.8L217.6,8.8z"/>
		<path class="st0" d="M220.2,12.6V7.1h0.7v2.2h0c0.3-0.4,0.7-0.6,1.2-0.6c1,0,1.3,0.7,1.3,1.4v2.6h-0.7v-2.3c0-0.7-0.2-1.1-0.9-1.1
			c-0.3,0-0.7,0.2-0.9,0.5c-0.2,0.4-0.1,0.7-0.1,0.9v2H220.2z"/>
		<path class="st0" d="M230.3,8.8l-1.4,3.8h-0.8l-0.9-3.2h0l-1,3.2h-0.9l-1.3-3.8h0.8l0.9,3.1h0l1-3.1h0.9l0.9,3h0l1-3H230.3z"/>
		<path class="st0" d="M231.5,10.8c-0.1,0.7,0.2,1.4,1,1.4c0.6,0,0.8-0.2,0.9-0.8h0.8c-0.1,0.9-0.8,1.3-1.7,1.3
			c-1.2,0-1.7-0.9-1.7-2c0-1.1,0.6-2.1,1.8-2.1c1.2,0,1.7,0.8,1.7,1.8v0.4H231.5z M233.4,10.3c0-0.6-0.3-1.1-1-1.1
			c-0.6,0-1,0.5-1,1.1H233.4z"/>
		<path class="st0" d="M236.6,8.7c0.7,0,1.5,0.3,1.5,1.2h-0.8c0-0.5-0.3-0.7-0.8-0.7c-0.4,0-0.7,0.2-0.7,0.6c0,0.4,0.7,0.5,0.9,0.5
			c0.7,0.2,1.4,0.3,1.4,1.2c0,0.9-0.9,1.2-1.7,1.2c-0.8,0-1.5-0.4-1.5-1.3h0.8c0,0.5,0.3,0.7,0.8,0.7c0.4,0,0.9-0.2,0.9-0.7
			c0-0.9-2.3-0.2-2.3-1.7C235.1,9,235.9,8.7,236.6,8.7z"/>
		<path class="st0" d="M239.4,8.8V8l0.7-0.2v1.1l0.9,0v0.5l-0.9,0v2.5c0,0.3,0.2,0.4,0.5,0.4c0.1,0,0.3,0,0.4,0v0.6
			c-0.2,0-0.3,0-0.5,0c-0.2,0-0.3,0-0.5,0c-0.1,0-0.3-0.1-0.4-0.3c-0.1-0.2-0.2-0.2-0.2-0.7V9.3l-0.7,0V8.8L239.4,8.8z"/>
		<path class="st0" d="M242.4,10.8c-0.1,0.7,0.2,1.4,1,1.4c0.6,0,0.9-0.2,0.9-0.8h0.8c-0.1,0.9-0.8,1.3-1.7,1.3
			c-1.2,0-1.7-0.9-1.7-2c0-1.1,0.6-2.1,1.8-2.1c1.2,0,1.7,0.8,1.7,1.8v0.4H242.4z M244.3,10.3c0-0.6-0.3-1.1-1-1.1
			c-0.6,0-1,0.5-1,1.1H244.3z"/>
		<path class="st0" d="M246.7,12.6H246V8.8h0.7v0.7h0c0.1-0.5,0.6-0.8,1.1-0.8c0.1,0,0.2,0,0.3,0v0.7c-0.1,0-0.2,0-0.3,0
			c-0.9,0-1.1,0.5-1.1,1.3V12.6z"/>
		<path class="st0" d="M249.6,9.3L249.6,9.3c0.3-0.5,0.8-0.7,1.2-0.7c0.3,0,1.5,0.1,1.5,1.3v2.7h-0.7v-2.4c0-0.6-0.3-1-0.9-1
			c0,0-0.4,0-0.7,0.3c-0.1,0.1-0.3,0.3-0.3,1v2.1h-0.7V8.8h0.7V9.3z"/>
		<path class="st0" d="M255.9,11c0,0.8,0.5,1.1,1.2,1.1c0.6,0,1.4-0.2,1.4-1c0-0.5-0.4-0.8-0.9-0.9c-0.9-0.2-2.4-0.4-2.4-1.6
			c0-1.2,1.1-1.6,2.1-1.6c0.9,0,1.9,0.4,1.9,1.5h-0.8c0-0.6-0.6-0.8-1.1-0.8c-0.5,0-1.3,0.2-1.3,0.9c0,0.6,0.4,0.7,0.9,0.8
			c1,0.3,2.4,0.3,2.4,1.7c0,1.3-1.1,1.7-2.2,1.7c-1.2,0-2-0.5-2-1.7H255.9z"/>
		<path class="st0" d="M266,8.8l-1.4,3.8h-0.8l-0.9-3.2h0l-1,3.2H261l-1.3-3.8h0.8l0.9,3.1h0l1-3.1h0.9l0.9,3h0l1-3H266z"/>
		<path class="st0" d="M266.6,7.1h0.9v0.8h-0.9V7.1z M266.7,12.6V8.8h0.7v3.8H266.7z"/>
		<path class="st0" d="M268.9,8.8V8l0.7-0.2v1.1l0.9,0v0.5l-0.9,0v2.5c0,0.3,0.2,0.4,0.5,0.4c0.1,0,0.3,0,0.4,0v0.6
			c-0.2,0-0.3,0-0.5,0c-0.2,0-0.3,0-0.5,0c-0.1,0-0.3-0.1-0.4-0.3c-0.1-0.2-0.2-0.2-0.2-0.7V9.3l-0.7,0V8.8L268.9,8.8z"/>
		<path class="st0" d="M273.9,12.6h-2.8v-0.5l1.9-2.8h-1.9V8.8h2.7v0.5l-1.9,2.8h2V12.6z"/>
		<path class="st0" d="M275.3,10.8c-0.1,0.7,0.2,1.4,1,1.4c0.6,0,0.9-0.2,0.9-0.8h0.8c-0.1,0.9-0.8,1.3-1.7,1.3
			c-1.2,0-1.7-0.9-1.7-2c0-1.1,0.6-2.1,1.8-2.1c1.2,0,1.7,0.8,1.7,1.8v0.4H275.3z M277.2,10.3c0-0.6-0.3-1.1-1-1.1
			c-0.6,0-1,0.5-1,1.1H277.2z"/>
		<path class="st0" d="M279.8,12.6h-0.7V8.8h0.7v0.7h0c0.1-0.5,0.6-0.8,1.1-0.8c0.1,0,0.2,0,0.3,0v0.7c-0.1,0-0.2,0-0.3,0
			c-0.9,0-1.1,0.5-1.1,1.3V12.6z"/>
		<path class="st0" d="M282,12.6V7.1h0.7v5.5H282z"/>
		<path class="st0" d="M286.3,10.2c0-0.7,0-1.1-0.8-1.1c-0.4,0-0.7,0.2-0.7,0.6H284c0-0.8,0.7-1.1,1.5-1.1c0.8,0,1.6,0.2,1.6,1.3
			v1.8c0,0.2,0,0.5,0,0.8h-0.5c-0.1,0-0.2,0-0.2-0.1c0-0.2,0-0.3,0-0.5h0c-0.2,0.5-0.7,0.7-1.2,0.7c-0.7,0-1.3-0.3-1.3-1.1
			c0-1.1,1-1.4,1.9-1.4H286.3z M285.6,10.8c-0.4,0-1,0.2-1,0.7c0,0.5,0.3,0.7,0.8,0.7c0.9,0,1-0.7,1-1.5H285.6z"/>
		<path class="st0" d="M289,9.3L289,9.3c0.3-0.5,0.8-0.7,1.2-0.7c0.3,0,1.5,0.1,1.5,1.3v2.7h-0.7v-2.4c0-0.6-0.3-1-0.9-1
			c0,0-0.4,0-0.7,0.3c-0.1,0.1-0.3,0.3-0.3,1v2.1h-0.7V8.8h0.7V9.3z"/>
		<path class="st0" d="M295.5,7.1h0.7v4.9c0,0.2,0,0.5,0,0.7h-0.7l0-0.6v0h0c-0.3,0.5-0.8,0.7-1.3,0.7c-1.1,0-1.6-1.1-1.6-2
			c0-1,0.5-2,1.7-2c0.5,0,1,0.2,1.2,0.6h0V7.1z M294.4,12.2c0.9,0,1.1-0.8,1.1-1.5c0-0.7-0.3-1.5-1.1-1.5c-0.9,0-1.1,0.8-1.1,1.5
			S293.6,12.2,294.4,12.2z"/>
		<path class="st0" d="M186.9,12.6l2.3-5.5h0.8l2.2,5.5h-0.8l-0.6-1.4h-2.6l-0.6,1.4H186.9z M188.6,10.5h2.1l-1-2.7L188.6,10.5z"/>
		<path class="st0" d="M193.9,12.6h-0.7V8.8h0.7v0.7h0c0.1-0.5,0.6-0.8,1.1-0.8c0.1,0,0.2,0,0.3,0v0.7c-0.1,0-0.2,0-0.3,0
			c-0.9,0-1.1,0.5-1.1,1.3V12.6z"/>
		<path class="st0" d="M196.3,8.8V8l0.7-0.2v1.1l0.9,0v0.5l-0.9,0v2.5c0,0.3,0.2,0.4,0.5,0.4c0.1,0,0.3,0,0.4,0v0.6
			c-0.2,0-0.3,0-0.5,0c-0.2,0-0.3,0-0.5,0c-0.1,0-0.3-0.1-0.4-0.3c-0.1-0.2-0.2-0.2-0.2-0.7V9.3l-0.7,0V8.8L196.3,8.8z"/>
		<path class="st0" d="M174.8,10.2c0-0.7,0-1.1-0.8-1.1c-0.4,0-0.7,0.2-0.7,0.6h-0.8c0-0.8,0.7-1.1,1.5-1.1c0.8,0,1.6,0.2,1.6,1.3
			v1.8c0,0.2,0,0.5,0,0.8h-0.5c-0.1,0-0.2,0-0.2-0.1c0-0.2,0-0.3,0-0.5h0c-0.2,0.5-0.7,0.7-1.2,0.7c-0.7,0-1.3-0.3-1.3-1.1
			c0-1.1,1-1.4,1.9-1.4H174.8z M174.1,10.8c-0.4,0-1,0.2-1,0.7c0,0.5,0.3,0.7,0.8,0.7c0.9,0,1-0.7,1-1.5H174.1z"/>
		<path class="st0" d="M177.5,9.3L177.5,9.3c0.3-0.5,0.8-0.7,1.2-0.7c0.3,0,1.5,0.1,1.5,1.3v2.7h-0.7v-2.4c0-0.6-0.3-1-0.9-1
			c0,0-0.4,0-0.7,0.3c-0.1,0.1-0.3,0.3-0.3,1v2.1h-0.7V8.8h0.7V9.3z"/>
		<path class="st0" d="M184.1,7.1h0.7v4.9c0,0.2,0,0.5,0,0.7h-0.7l0-0.6v0h0c-0.3,0.5-0.8,0.7-1.3,0.7c-1.1,0-1.6-1.1-1.6-2
			c0-1,0.5-2,1.7-2c0.5,0,1,0.2,1.2,0.6h0V7.1z M183,12.2c0.9,0,1.1-0.8,1.1-1.5c0-0.7-0.3-1.5-1.1-1.5c-0.9,0-1.1,0.8-1.1,1.5
			C181.9,11.4,182.1,12.2,183,12.2z"/>
		<path class="st0" d="M200,8.7c0.7,0,1.5,0.3,1.5,1.2h-0.8c0-0.5-0.3-0.7-0.8-0.7c-0.4,0-0.7,0.2-0.7,0.6c0,0.4,0.7,0.5,0.9,0.5
			c0.7,0.2,1.4,0.3,1.4,1.2c0,0.9-0.9,1.2-1.7,1.2c-0.8,0-1.5-0.4-1.5-1.3h0.8c0,0.5,0.3,0.7,0.8,0.7c0.4,0,0.9-0.2,0.9-0.7
			c0-0.9-2.3-0.2-2.3-1.7C198.4,9,199.3,8.7,200,8.7z"/>
	</g>
	<path class="st0" d="M82.3,21.3l2.3-5.5h0.8l2.2,5.5h-0.8l-0.6-1.4h-2.6l-0.6,1.4H82.3z M84,19.2H86l-1-2.7L84,19.2z"/>
	<path class="st0" d="M90.7,18.6c0-0.5-0.3-0.8-0.8-0.8c-0.7,0-1,0.6-1,1.5c0,0.9,0.3,1.5,1,1.5c0.5,0,0.8-0.3,0.8-0.9h0.7
		c-0.1,0.9-0.7,1.4-1.6,1.4c-1.2,0-1.7-0.9-1.7-2c0-1.1,0.6-2.1,1.8-2.1c0.8,0,1.4,0.5,1.5,1.3H90.7z"/>
	<path class="st0" d="M94.7,18.9c0-0.7,0-1.1-0.8-1.1c-0.4,0-0.7,0.2-0.7,0.6h-0.8c0-0.8,0.7-1.1,1.5-1.1c0.8,0,1.6,0.2,1.6,1.3v1.8
		c0,0.2,0,0.5,0,0.8H95c-0.1,0-0.2,0-0.2-0.1c0-0.2,0-0.3,0-0.5h0c-0.2,0.5-0.7,0.7-1.2,0.7c-0.7,0-1.3-0.3-1.3-1.1
		c0-1.1,1-1.4,1.9-1.4H94.7z M94,19.4c-0.4,0-1,0.2-1,0.7c0,0.5,0.3,0.7,0.8,0.7c0.9,0,1-0.7,1-1.5H94z"/>
	<path class="st0" d="M99.5,15.7h0.7v4.9c0,0.2,0,0.5,0,0.7h-0.7l0-0.6v0h0c-0.3,0.5-0.8,0.7-1.3,0.7c-1.1,0-1.6-1.1-1.6-2
		c0-1,0.5-2,1.7-2c0.5,0,1,0.2,1.2,0.6h0V15.7z M98.4,20.9c0.9,0,1.1-0.8,1.1-1.5c0-0.7-0.3-1.5-1.1-1.5c-0.9,0-1.1,0.8-1.1,1.5
		S97.6,20.9,98.4,20.9z"/>
	<path class="st0" d="M102,19.5c-0.1,0.7,0.2,1.4,1,1.4c0.6,0,0.9-0.2,0.9-0.8h0.8c-0.1,0.9-0.8,1.3-1.7,1.3c-1.2,0-1.7-0.9-1.7-2
		c0-1.1,0.6-2.1,1.8-2.1c1.1,0,1.7,0.8,1.7,1.8v0.4H102z M104,19c0-0.6-0.3-1.1-1-1.1c-0.6,0-1,0.5-1,1.1H104z"/>
	<path class="st0" d="M106.6,18L106.6,18c0.2-0.5,0.7-0.7,1.1-0.7c0.7,0,1.2,0.2,1.4,0.7c0.3-0.5,0.7-0.7,1.3-0.7
		c0.9,0,1.4,0.6,1.4,1.3v2.7h-0.7V19c0-0.5-0.1-1.1-0.9-1.1c-0.2,0-0.7,0.1-0.9,0.6c-0.1,0.4-0.1,0.7-0.1,0.8v2h-0.7V19
		c0-0.7-0.2-1.1-0.9-1.1c-0.3,0-0.7,0.1-1,0.6c-0.1,0.2-0.1,0.7-0.1,0.8v2h-0.7v-3.8h0.7V18z"/>
	<path class="st0" d="M114.4,22.7h-0.7l0.6-1.5l-1.6-3.8h0.8l1.2,3l1.2-3h0.8L114.4,22.7z"/>
	<path class="st0" d="M122.2,19.3c0,1.2-0.7,2-1.9,2c-1.3,0-1.9-0.8-1.9-2c0-1.2,0.7-2,1.9-2C121.5,17.3,122.2,18.1,122.2,19.3z
		 M120.3,20.8c0.9,0,1.1-0.7,1.1-1.5c0-0.8-0.3-1.5-1.1-1.5c-0.9,0-1.2,0.7-1.2,1.5C119.1,20.2,119.4,20.8,120.3,20.8z"/>
	<path class="st0" d="M123.6,21.3v-3.3h-0.8v-0.5h0.8v-0.7c0-0.8,0.7-1.1,1.2-1.1c0.2,0,0.3,0,0.5,0.1v0.6c-0.1,0-0.2,0-0.4,0
		c-0.4,0-0.7,0.1-0.6,0.5v0.6h0.9v0.5h-0.9v3.3H123.6z"/>
	<path class="st0" d="M126.9,21.3l2.3-5.5h0.8l2.2,5.5h-0.8l-0.6-1.4h-2.6l-0.6,1.4H126.9z M128.5,19.2h2.1l-1-2.7L128.5,19.2z"/>
	<path class="st0" d="M133.8,21.3h-0.7v-3.8h0.7v0.7h0c0.1-0.5,0.6-0.8,1.1-0.8c0.1,0,0.2,0,0.3,0v0.7c-0.1,0-0.2,0-0.3,0
		c-0.9,0-1.1,0.5-1.1,1.3V21.3z"/>
	<path class="st0" d="M136.2,17.4v-0.8l0.7-0.2v1.1l0.9,0v0.5l-0.9,0v2.5c0,0.3,0.2,0.4,0.5,0.4c0.1,0,0.3,0,0.4,0v0.6
		c-0.2,0-0.3,0-0.5,0c-0.2,0-0.3,0-0.5,0c-0.1,0-0.3-0.1-0.4-0.3c-0.1-0.2-0.2-0.2-0.2-0.7v-2.4l-0.7,0v-0.5L136.2,17.4z"/>
	<path class="st0" d="M142.8,18.9c0-0.7,0-1.1-0.8-1.1c-0.4,0-0.7,0.2-0.7,0.6h-0.8c0-0.8,0.7-1.1,1.5-1.1c0.8,0,1.6,0.2,1.6,1.3
		v1.8c0,0.2,0,0.5,0,0.8H143c-0.1,0-0.2,0-0.2-0.1c0-0.2,0-0.3,0-0.5h0c-0.2,0.5-0.7,0.7-1.2,0.7c-0.7,0-1.3-0.3-1.3-1.1
		c0-1.1,1-1.4,1.9-1.4H142.8z M142,19.4c-0.4,0-1,0.2-1,0.7c0,0.5,0.3,0.7,0.8,0.7c0.9,0,1-0.7,1-1.5H142z"/>
	<path class="st0" d="M145.4,18L145.4,18c0.3-0.5,0.8-0.7,1.2-0.7c0.3,0,1.5,0.1,1.5,1.3v2.7h-0.7v-2.4c0-0.6-0.3-1-0.9-1
		c0,0-0.4,0-0.7,0.3c-0.1,0.1-0.3,0.3-0.3,1v2.1h-0.7v-3.8h0.7V18z"/>
	<path class="st0" d="M152,15.7h0.7v4.9c0,0.2,0,0.5,0,0.7H152l0-0.6v0h0c-0.3,0.5-0.8,0.7-1.3,0.7c-1.1,0-1.6-1.1-1.6-2
		c0-1,0.5-2,1.7-2c0.5,0,1,0.2,1.2,0.6h0V15.7z M150.9,20.9c0.9,0,1.1-0.8,1.1-1.5c0-0.7-0.3-1.5-1.1-1.5c-0.9,0-1.1,0.8-1.1,1.5
		S150.1,20.9,150.9,20.9z"/>
	<path class="st0" d="M155.5,15.7h1.8c0.5,0,1.1,0.1,1.5,0.3c0.8,0.5,1.2,1.4,1.2,2.4c0,1-0.4,1.9-1.2,2.4c-0.4,0.3-1,0.3-1.5,0.3
		h-1.8V15.7z M156.3,20.6h1.1c0.8,0,1.2-0.3,1.4-0.6c0.3-0.5,0.4-1,0.4-1.5c0-0.5-0.1-1-0.4-1.5c-0.2-0.3-0.6-0.6-1.4-0.6h-1.1V20.6
		z"/>
	<path class="st0" d="M161.6,19.5c-0.1,0.7,0.2,1.4,1,1.4c0.6,0,0.9-0.2,0.9-0.8h0.8c-0.1,0.9-0.8,1.3-1.7,1.3c-1.2,0-1.7-0.9-1.7-2
		c0-1.1,0.6-2.1,1.8-2.1c1.1,0,1.7,0.8,1.7,1.8v0.4H161.6z M163.6,19c0-0.6-0.3-1.1-1-1.1c-0.6,0-1,0.5-1,1.1H163.6z"/>
	<path class="st0" d="M166.7,17.3c0.7,0,1.5,0.3,1.5,1.2h-0.8c0-0.5-0.3-0.7-0.8-0.7c-0.4,0-0.7,0.2-0.7,0.6c0,0.4,0.7,0.5,0.9,0.5
		c0.7,0.2,1.4,0.3,1.4,1.2c0,0.9-0.9,1.2-1.7,1.2c-0.8,0-1.5-0.4-1.5-1.3h0.8c0,0.5,0.3,0.7,0.8,0.7c0.4,0,0.9-0.2,0.9-0.7
		c0-0.9-2.3-0.2-2.3-1.7C165.2,17.7,166,17.3,166.7,17.3z"/>
	<path class="st0" d="M169.3,15.7h0.9v0.8h-0.9V15.7z M169.4,21.3v-3.8h0.7v3.8H169.4z"/>
	<path class="st0" d="M174.2,17.4h0.8c0,0.2,0,0.5,0,0.7v2.7c0,1.4-0.6,2-2,2c-0.8,0-1.4-0.4-1.4-1.2h0.8c0,0.5,0.4,0.7,0.9,0.7
		c1,0,1-0.9,1.1-1.7h0c-0.2,0.5-0.8,0.7-1.3,0.7c-1.2,0-1.6-0.8-1.6-1.9c0-1.1,0.6-2,1.8-2c0.4,0,0.8,0.2,1,0.5c0,0,0.1,0.2,0.1,0.2
		L174.2,17.4z M173.1,20.7c0.8,0,1.1-0.7,1.1-1.4c0-0.7-0.3-1.4-1.1-1.4c-0.9,0-1.1,0.8-1.1,1.4S172.3,20.7,173.1,20.7z"/>
	<path class="st0" d="M176.8,18L176.8,18c0.3-0.5,0.8-0.7,1.2-0.7c0.3,0,1.5,0.1,1.5,1.3v2.7h-0.7v-2.4c0-0.6-0.3-1-0.9-1
		c0,0-0.4,0-0.7,0.3c-0.1,0.1-0.3,0.3-0.3,1v2.1H176v-3.8h0.7V18z"/>
</g>
</svg>
