<?xml version="1.0" encoding="utf-8"?>
<!-- Generator: Adobe Illustrator 27.5.0, SVG Export Plug-In . SVG Version: 6.00 Build 0)  -->
<svg version="1.1" id="Ebene_1" xmlns="http://www.w3.org/2000/svg" xmlns:xlink="http://www.w3.org/1999/xlink" x="0px" y="0px"
	 viewBox="0 0 566.9 125.9" style="enable-background:new 0 0 566.9 125.9;" xml:space="preserve">
<style type="text/css">
	.st0{fill:#FFFFFF;}
</style>
<g>
	<path class="st0" d="M394.4,79.6v4.8c0,5,3.7,7.2,9.8,7.2c8.6,0,14-6.8,14-16.6v-2.5l-19.3,1.8C394.9,74.7,394.4,76.5,394.4,79.6z"
		/>
	<path class="st0" d="M0,0v125.9h566.9V0H0z M37.3,25.6H48v10.8H37.3V25.6z M62.7,98H24.3v-8.2h14.2V51.9H24.3v-8.2h14.2H48v8.2
		v37.9h14.7V98z M437,98h-17.6l-0.2-10h-0.4c-3,7.7-8.9,11.3-17,11.3c-5.3,0-9.9-1.7-13-4.9c-2.8-2.9-4.5-7-4.5-11.3
		c0-8.5,5.4-15.3,16.2-16.3l17.7-1.6v-4.4c0-8.4-4.6-10.8-11.3-10.8c-6.7,0-11.2,2.9-11.2,9.8h-9.6c0-10.2,9.3-17.5,20.9-17.5
		c11.7,0,20.6,5.8,20.6,18.5v28.9h9.5V98z M488.4,52h-19v46h-9.6V43.7h28.6V52z M542.6,51.9h-14.2v37.9h14.2V98h-23.7V51.9h-9.5
		v-8.2h9.5V25.6h9.5v18.1h14.2V51.9z"/>
</g>
</svg>
