<?xml version="1.0" encoding="utf-8"?>
<!-- Generator: Adobe Illustrator 26.1.0, SVG Export Plug-In . SVG Version: 6.00 Build 0)  -->
<svg version="1.1" id="Ebene_1" xmlns="http://www.w3.org/2000/svg" xmlns:xlink="http://www.w3.org/1999/xlink" x="0px" y="0px"
	 viewBox="0 0 435.57 209.11" style="enable-background:new 0 0 435.57 209.11;" xml:space="preserve">
<style type="text/css">
	.st0{fill:#FFFFFF;}
</style>
<g>
	<rect x="274.43" y="128.11" class="st0" width="13.4" height="6.82"/>
	<polygon class="st0" points="305.26,134.82 320.12,134.82 320.12,128.8 305.26,128.8 305.26,120.37 322.47,120.37 322.47,114.35 
		298.07,114.35 298.07,149.94 305.26,149.94 	"/>
	<path class="st0" d="M350.44,136.98c0-3.87-1.25-7.07-3.74-9.6c-2.49-2.53-5.69-3.8-9.59-3.8c-2.52,0-4.81,0.56-6.86,1.67
		c-2.05,1.12-3.63,2.74-4.75,4.86c-1.12,2.12-1.67,4.31-1.67,6.58c0,2.96,0.56,5.47,1.67,7.54c1.12,2.06,2.75,3.63,4.89,4.7
		c2.14,1.07,4.4,1.6,6.76,1.6c3.82,0,6.99-1.28,9.5-3.85C349.18,144.11,350.44,140.88,350.44,136.98z M341.62,142.93
		c-1.21,1.36-2.7,2.04-4.48,2.04c-1.78,0-3.28-0.68-4.49-2.04c-1.21-1.36-1.82-3.32-1.82-5.88c0-2.56,0.61-4.52,1.82-5.88
		c1.21-1.36,2.71-2.04,4.49-2.04c1.78,0,3.27,0.68,4.48,2.04c1.21,1.36,1.81,3.3,1.81,5.83
		C343.43,139.59,342.82,141.57,341.62,142.93z"/>
	<path class="st0" d="M369.51,129.48c0.66,0.45,1.13,1.09,1.42,1.91c0.29,0.82,0.44,2.62,0.44,5.4v13.16h6.82v-16.02
		c0-1.99-0.13-3.52-0.38-4.59c-0.25-1.07-0.7-2.02-1.33-2.87c-0.64-0.84-1.58-1.53-2.83-2.08c-1.25-0.54-2.62-0.81-4.13-0.81
		c-3.41,0-6.25,1.46-8.5,4.37v-3.79h-6.34v25.78h6.82v-11.68c0-2.88,0.17-4.86,0.52-5.92c0.35-1.07,0.99-1.93,1.93-2.57
		c0.94-0.65,2-0.97,3.18-0.97C368.07,128.8,368.86,129.03,369.51,129.48z"/>
	<path class="st0" d="M401.18,146.16v3.79h6.34v-35.59h-6.82v12.82c-2.1-2.4-4.6-3.59-7.48-3.59c-3.14,0-5.74,1.14-7.79,3.41
		c-2.06,2.27-3.08,5.6-3.08,9.97c0,4.27,1.06,7.6,3.17,9.99c2.11,2.39,4.65,3.58,7.61,3.58c1.46,0,2.9-0.36,4.33-1.08
		C398.88,148.73,400.12,147.63,401.18,146.16z M390.45,142.47c-0.76-1.23-1.14-3.22-1.14-5.97c0-2.56,0.55-4.48,1.64-5.77
		c1.09-1.29,2.45-1.93,4.07-1.93c1.67,0,3.04,0.65,4.1,1.95c1.07,1.3,1.6,3.44,1.6,6.4c0,2.65-0.55,4.65-1.65,5.98
		c-1.1,1.34-2.44,2-4.01,2C393.08,145.14,391.55,144.25,390.45,142.47z"/>
	<path class="st0" d="M433.43,136.81c-1.44-1.2-3.98-2.21-7.61-3.04c-3.63-0.83-5.76-1.46-6.37-1.92c-0.45-0.34-0.68-0.75-0.68-1.24
		c0-0.57,0.26-1.03,0.78-1.38c0.78-0.5,2.06-0.75,3.86-0.75c1.42,0,2.52,0.27,3.29,0.8c0.77,0.53,1.29,1.3,1.57,2.31l6.43-1.19
		c-0.65-2.25-1.83-3.95-3.54-5.1c-1.72-1.15-4.34-1.72-7.87-1.72c-3.71,0-6.44,0.76-8.21,2.28c-1.76,1.52-2.65,3.4-2.65,5.63
		c0,2.48,1.02,4.41,3.06,5.8c1.47,1,4.96,2.11,10.46,3.33c1.18,0.28,1.94,0.57,2.28,0.9c0.32,0.34,0.49,0.77,0.49,1.29
		c0,0.76-0.3,1.37-0.9,1.82c-0.89,0.65-2.22,0.97-3.98,0.97c-1.6,0-2.85-0.34-3.74-1.03c-0.89-0.69-1.48-1.7-1.77-3.02l-6.85,1.04
		c0.63,2.44,1.97,4.38,4.02,5.8c2.05,1.42,4.83,2.14,8.34,2.14c3.87,0,6.79-0.85,8.76-2.55c1.97-1.7,2.96-3.73,2.96-6.09
		C435.57,139.72,434.86,138.02,433.43,136.81z"/>
	<path class="st0" d="M153.2,175.93c1.54-0.7,2.76-1.74,3.65-3.13c0.9-1.39,1.35-2.92,1.35-4.59c0-1.54-0.36-2.93-1.09-4.16
		c-0.73-1.24-1.64-2.23-2.73-2.97c-1.09-0.74-2.33-1.23-3.71-1.47c-1.38-0.23-3.48-0.35-6.3-0.35h-14.23v35.59h12.11
		c4.58-0.03,7.47-0.11,8.67-0.24c1.91-0.21,3.52-0.77,4.82-1.69c1.3-0.92,2.33-2.14,3.08-3.67c0.75-1.53,1.13-3.1,1.13-4.72
		c0-2.05-0.58-3.84-1.75-5.37C157.04,177.64,155.37,176.56,153.2,175.93z M137.33,165.18h4.13c3.38,0,5.43,0.04,6.14,0.12
		c1.2,0.15,2.1,0.56,2.71,1.25c0.61,0.69,0.91,1.58,0.91,2.68c0,1.15-0.35,2.08-1.06,2.78s-1.67,1.13-2.9,1.27
		c-0.68,0.08-2.42,0.12-5.22,0.12h-4.71V165.18z M151.52,187.21c-0.67,0.75-1.54,1.23-2.61,1.42c-0.7,0.15-2.34,0.22-4.93,0.22
		h-6.65v-9.52h5.8c3.27,0,5.39,0.17,6.37,0.51c0.98,0.34,1.73,0.88,2.25,1.63c0.52,0.74,0.78,1.65,0.78,2.72
		C152.52,185.45,152.19,186.46,151.52,187.21z"/>
	<path class="st0" d="M186.23,186.37l0.07-7.96c0-2.96-0.3-5-0.91-6.11c-0.61-1.11-1.66-2.02-3.14-2.74
		c-1.49-0.72-3.75-1.08-6.8-1.08c-3.35,0-5.88,0.6-7.57,1.8c-1.7,1.2-2.9,3.04-3.59,5.54l6.19,1.12c0.42-1.2,0.97-2.04,1.65-2.51
		c0.68-0.48,1.63-0.72,2.84-0.72c1.8,0,3.02,0.28,3.67,0.84c0.65,0.56,0.97,1.49,0.97,2.8v0.68c-1.23,0.52-3.44,1.08-6.63,1.67
		c-2.36,0.45-4.17,0.98-5.43,1.59c-1.25,0.61-2.23,1.48-2.93,2.62c-0.7,1.14-1.04,2.44-1.04,3.9c0,2.2,0.76,4.02,2.29,5.46
		c1.53,1.44,3.62,2.16,6.28,2.16c1.51,0,2.92-0.28,4.25-0.85c1.33-0.57,2.57-1.42,3.74-2.55c0.05,0.13,0.13,0.4,0.24,0.8
		c0.26,0.89,0.48,1.56,0.66,2.01h6.75c-0.6-1.23-1.01-2.38-1.23-3.46C186.34,190.31,186.23,188.64,186.23,186.37z M179.6,183.82
		c0,1.64-0.09,2.74-0.27,3.33c-0.26,0.89-0.8,1.64-1.63,2.26c-1.12,0.81-2.29,1.21-3.52,1.21c-1.1,0-2.01-0.35-2.72-1.04
		c-0.71-0.7-1.07-1.52-1.07-2.48c0-0.97,0.44-1.77,1.34-2.4c0.58-0.39,1.82-0.78,3.71-1.19c1.89-0.4,3.28-0.75,4.15-1.04V183.82z"/>
	<path class="st0" d="M212.57,181.71c-1.44-1.2-3.98-2.21-7.61-3.04c-3.63-0.83-5.76-1.46-6.37-1.92c-0.45-0.34-0.68-0.75-0.68-1.24
		c0-0.57,0.26-1.03,0.78-1.38c0.78-0.5,2.06-0.75,3.86-0.75c1.42,0,2.52,0.27,3.29,0.8c0.77,0.53,1.29,1.3,1.57,2.31l6.43-1.19
		c-0.65-2.25-1.83-3.95-3.54-5.1c-1.72-1.15-4.34-1.72-7.87-1.72c-3.71,0-6.44,0.76-8.21,2.28c-1.76,1.52-2.65,3.4-2.65,5.63
		c0,2.48,1.02,4.41,3.06,5.8c1.47,1,4.96,2.11,10.46,3.33c1.18,0.28,1.94,0.57,2.28,0.9c0.32,0.34,0.49,0.77,0.49,1.29
		c0,0.76-0.3,1.37-0.9,1.82c-0.89,0.65-2.22,0.97-3.98,0.97c-1.6,0-2.85-0.34-3.74-1.03c-0.89-0.69-1.48-1.7-1.77-3.02l-6.85,1.04
		c0.63,2.44,1.97,4.38,4.02,5.8c2.05,1.42,4.83,2.14,8.34,2.14c3.87,0,6.79-0.85,8.76-2.55c1.97-1.7,2.96-3.73,2.96-6.09
		C214.71,184.61,214,182.92,212.57,181.71z"/>
	<path class="st0" d="M238.6,172.28c-2.22-2.53-5.24-3.8-9.08-3.8c-3.41,0-6.24,1.21-8.47,3.63c-2.23,2.42-3.35,5.77-3.35,10.04
		c0,3.58,0.85,6.54,2.55,8.89c2.15,2.93,5.47,4.39,9.95,4.39c2.83,0,5.19-0.65,7.08-1.96c1.88-1.3,3.27-3.2,4.14-5.69l-6.8-1.14
		c-0.37,1.29-0.92,2.23-1.65,2.82c-0.73,0.58-1.63,0.87-2.69,0.87c-1.57,0-2.88-0.56-3.93-1.69c-1.05-1.12-1.6-2.7-1.65-4.72h17.09
		C241.88,178.69,240.82,174.81,238.6,172.28z M224.81,179.74c-0.02-1.86,0.46-3.33,1.43-4.42c0.97-1.08,2.2-1.63,3.69-1.63
		c1.39,0,2.57,0.51,3.54,1.54c0.97,1.03,1.48,2.53,1.53,4.5H224.81z"/>
	<rect x="247.34" y="159.25" class="st0" width="6.82" height="35.59"/>
	<rect x="264.58" y="176.54" class="st0" width="13.4" height="6.82"/>
	<path class="st0" d="M310.94,175.19c-1.68-0.88-4.26-1.74-7.76-2.56c-3.5-0.83-5.7-1.62-6.6-2.38c-0.71-0.6-1.07-1.32-1.07-2.16
		c0-0.92,0.38-1.66,1.14-2.21c1.18-0.86,2.82-1.29,4.9-1.29c2.02,0,3.54,0.4,4.55,1.2c1.01,0.8,1.67,2.12,1.98,3.94l7.19-0.32
		c-0.11-3.27-1.3-5.88-3.56-7.84c-2.26-1.96-5.62-2.94-10.09-2.94c-2.74,0-5.07,0.41-7,1.24c-1.93,0.83-3.42,2.03-4.44,3.61
		c-1.03,1.58-1.54,3.27-1.54,5.09c0,2.82,1.09,5.2,3.28,7.16c1.55,1.39,4.26,2.57,8.11,3.52c2.99,0.74,4.91,1.26,5.75,1.55
		c1.23,0.44,2.09,0.95,2.58,1.54c0.49,0.59,0.74,1.31,0.74,2.15c0,1.31-0.59,2.46-1.76,3.44c-1.17,0.98-2.92,1.47-5.23,1.47
		c-2.19,0-3.92-0.55-5.21-1.65c-1.29-1.1-2.14-2.82-2.56-5.17l-6.99,0.68c0.47,3.98,1.91,7.01,4.32,9.09
		c2.41,2.08,5.87,3.12,10.37,3.12c3.09,0,5.67-0.43,7.75-1.3c2.07-0.87,3.67-2.19,4.81-3.97c1.13-1.78,1.7-3.69,1.7-5.73
		c0-2.25-0.47-4.14-1.42-5.67C313.92,177.28,312.61,176.07,310.94,175.19z"/>
	<path class="st0" d="M331.09,189.77c-0.45,0-0.84-0.11-1.15-0.34c-0.32-0.23-0.52-0.51-0.61-0.86c-0.09-0.35-0.13-1.57-0.13-3.68
		V174.5h4.66v-5.44h-4.66v-9.1l-6.85,3.98v5.12h-3.13v5.44h3.13v11.24c0,2.41,0.07,4.01,0.22,4.81c0.18,1.12,0.5,2,0.96,2.66
		c0.46,0.66,1.19,1.19,2.17,1.6c0.99,0.41,2.1,0.62,3.33,0.62c2.01,0,3.8-0.34,5.39-1.02l-0.58-5.29
		C332.64,189.55,331.73,189.77,331.09,189.77z"/>
	<path class="st0" d="M361.09,186.37l0.07-7.96c0-2.96-0.3-5-0.91-6.11c-0.61-1.11-1.66-2.02-3.14-2.74
		c-1.49-0.72-3.75-1.08-6.8-1.08c-3.35,0-5.88,0.6-7.58,1.8c-1.7,1.2-2.9,3.04-3.59,5.54l6.19,1.12c0.42-1.2,0.97-2.04,1.65-2.51
		c0.68-0.48,1.63-0.72,2.84-0.72c1.8,0,3.02,0.28,3.67,0.84c0.65,0.56,0.97,1.49,0.97,2.8v0.68c-1.23,0.52-3.44,1.08-6.63,1.67
		c-2.36,0.45-4.17,0.98-5.43,1.59c-1.25,0.61-2.23,1.48-2.92,2.62c-0.7,1.14-1.04,2.44-1.04,3.9c0,2.2,0.76,4.02,2.29,5.46
		c1.53,1.44,3.62,2.16,6.28,2.16c1.5,0,2.92-0.28,4.25-0.85c1.33-0.57,2.57-1.42,3.74-2.55c0.05,0.13,0.13,0.4,0.24,0.8
		c0.26,0.89,0.48,1.56,0.66,2.01h6.75c-0.6-1.23-1.01-2.38-1.23-3.46C361.2,190.31,361.09,188.64,361.09,186.37z M354.47,183.82
		c0,1.64-0.09,2.74-0.27,3.33c-0.26,0.89-0.8,1.64-1.63,2.26c-1.12,0.81-2.29,1.21-3.52,1.21c-1.1,0-2.01-0.35-2.72-1.04
		c-0.71-0.7-1.07-1.52-1.07-2.48c0-0.97,0.44-1.77,1.34-2.4c0.58-0.39,1.82-0.78,3.71-1.19c1.89-0.4,3.28-0.75,4.15-1.04V183.82z"/>
	<path class="st0" d="M384.42,172.07c-2.1-2.4-4.6-3.59-7.48-3.59c-3.14,0-5.74,1.14-7.79,3.41c-2.06,2.27-3.08,5.6-3.08,9.97
		c0,4.27,1.06,7.6,3.17,9.99c2.11,2.39,4.65,3.58,7.61,3.58c1.46,0,2.9-0.36,4.33-1.08c1.43-0.72,2.67-1.82,3.73-3.29v3.79h6.34
		v-35.59h-6.82V172.07z M382.79,188.03c-1.1,1.33-2.44,2-4.01,2c-1.97,0-3.51-0.89-4.61-2.67c-0.76-1.23-1.14-3.22-1.14-5.97
		c0-2.56,0.55-4.48,1.64-5.77c1.09-1.29,2.45-1.93,4.07-1.93c1.67,0,3.04,0.65,4.1,1.95c1.07,1.3,1.6,3.44,1.6,6.4
		C384.44,184.7,383.89,186.7,382.79,188.03z"/>
	<path class="st0" d="M408.01,189.77c-0.45,0-0.84-0.11-1.15-0.34c-0.32-0.23-0.52-0.51-0.61-0.86c-0.09-0.35-0.13-1.57-0.13-3.68
		V174.5h4.66v-5.44h-4.66v-9.1l-6.85,3.98v5.12h-3.13v5.44h3.13v11.24c0,2.41,0.07,4.01,0.22,4.81c0.18,1.12,0.5,2,0.96,2.66
		c0.46,0.66,1.19,1.19,2.17,1.6c0.99,0.41,2.1,0.62,3.33,0.62c2.01,0,3.8-0.34,5.39-1.02l-0.58-5.29
		C409.56,189.55,408.64,189.77,408.01,189.77z"/>
	<path class="st0" d="M265.15,130.29V117.2l-3.18-1.23c-2.52-0.98-5.96-2.1-10.25-2.1c-4.24,0-7.94,1.12-10.71,3.22
		c-1.04,0.8-1.92,1.72-2.63,2.73c-2.88-3.87-7.48-5.95-13.52-5.95c-10.8,0-17,6.66-17,18.29c0,0.71,0.02,1.4,0.07,2.08h-3.48V114.3
		h-16.91v1.87l-0.53-0.2c-2.52-0.98-5.97-2.1-10.26-2.1c-4.24,0-7.94,1.12-10.71,3.22c-0.27,0.21-0.13,0.1-0.38,0.3l-0.43-0.17
		l-3.15-1.25c-2.52-0.98-5.97-2.1-10.26-2.1c-4.24,0-7.94,1.12-10.7,3.22c-0.27,0.21-0.53,0.43-0.78,0.65v-3.44h-28.99l-0.51,4.4
		l-0.14,1.18h-3.39l-2.16-11.91v-0.94c2.08-1.66,3.42-4.24,3.42-7.13c0-0.21-0.02-0.42-0.03-0.62c4.38-1.56,7.55-5.69,7.55-10.43
		c0-5.31-3.67-9.7-8.67-10.82c0-0.02,0-0.04,0-0.05c0-4.22-2.87-7.78-6.76-8.8c-0.31-3.08-0.66-5.69-0.94-7.41l-0.15-0.95
		c-0.45-2.81-1.2-7.52-2.46-12.19c-1.04-3.85-2.82-9.3-3.29-10.58c-1.22-3.27-3.79-8.35-4.72-9.86c-0.46-0.74-0.85-1.47-1.26-2.25
		c-0.58-1.1-1.24-2.34-2.15-3.69c-0.36-0.54-0.79-1.11-1.22-1.68c-0.39-0.51-0.79-1.05-1.04-1.44l-0.43-0.58
		c-1.42-1.69-3.26-3.85-4-4.55c-2.8-2.67-6.89-5.51-7.63-6.01c-3.36-2.44-8.84-4.89-11.37-5.67c-4.47-1.37-9.86-2.2-12.87-2.31
		c-1.95-0.07-7.84,0.21-10.34,0.73c-0.13,0.02-0.31,0.05-0.54,0.09c-3.35,0.54-13.5,2.2-21.9,9.69c-1.09,0.87-5.83,4.85-9.38,11.09
		c-1.27,2.22-2.49,5.21-3.43,8.41c-2.81,9.48-1.83,19.71,2.7,28.06C8.64,66.14,15.8,70.73,20.6,72.2c4.1,1.26,8.54,1.83,12.19,1.56
		c2.99-0.22,6.21-1.14,8.85-2.53c0.65-0.34,1.29-0.73,1.9-1.15c-1.9,2.32-2.14,5.4-1.94,7.84c-5.25,0.89-9.26,5.43-9.26,10.9
		c0,4.75,2.93,8.79,7.22,10.39c-0.02,0.23-0.04,0.45-0.04,0.68c0,2.73,1.26,5.24,3.21,6.91v1.5l-16,100.79l29.31-26.08l18.66,19.76
		l18.57-19.8l30.2,26.14l-10.7-59.09h27.57v-2.38c3.72,1.89,7.49,2.81,11.48,2.81c5.28,0,9.16-1.49,11.77-3.72
		c4.26,2.5,8.56,3.72,13.16,3.72c4.65,0,8.22-1.16,10.78-2.97v2.53h27.82v-1.9c2.57,1.53,5.76,2.34,9.5,2.34
		c5.25,0,9.42-1.58,12.31-4.54l1.36,0.8c4.27,2.52,8.58,3.74,13.18,3.74c11,0,15.92-6.43,15.92-12.79
		C267.64,134.54,266.66,132.15,265.15,130.29z M97.73,74.59c0.2-0.03,0.4-0.06,0.6-0.06c1.96,0,3.54,1.61,3.54,3.6
		c0,1.98-1.58,3.59-3.54,3.59c-0.21,0-0.41-0.02-0.61-0.06H51.24c-0.2,0.03-0.4,0.06-0.61,0.06c-1.95,0-3.54-1.61-3.54-3.59
		c0-1.99,1.58-3.6,3.54-3.6c0.21,0,0.41,0.02,0.6,0.06H97.73z M39.03,66.52c-1.88,0.99-4.32,1.74-6.67,1.91
		c-3.41,0.25-7.24-0.43-10.17-1.33c-2.93-0.9-9.21-4.29-13.1-11.48c-3.9-7.19-4.58-16.03-2.26-23.86c0.93-3.13,2.01-5.62,2.94-7.25
		c3.44-6.04,8.14-9.59,8.14-9.59c8.03-7.24,18.27-8.25,19.99-8.6c1.96-0.4,7.39-0.68,9.04-0.62c2.54,0.09,7.47,0.85,11.45,2.07
		c2.16,0.66,7.13,2.95,9.8,4.9c1.5,1.02,4.86,3.46,7,5.5c0.67,0.64,3.58,4.1,3.58,4.1c0.67,1.05,1.64,2.21,2.34,3.24
		c1.33,1.98,2.04,3.72,3.29,5.75c0.76,1.23,3.17,6,4.24,8.89c0.39,1.05,2.13,6.36,3.13,10.08c1.33,4.93,2.05,9.89,2.49,12.59
		c0.44,2.7,0.86,5.1,1.19,10.07c-13.48,0-27.91,0.08-41.39,0.08c0.34-1.01,1.24-12.64,1.24-13.54c0-3.05-0.29-6.53-0.48-7.73
		c-0.33-2.09-1.32-5.63-1.86-6.91c-1.86-4.43-5.34-7.87-8.92-9.11c-3.76-1.3-8.5-0.95-11.75,0.81c-2.44,1.32-4.27,3.68-4.84,4.8
		c-1.15,2.25-1.47,4.66-1.23,6.48c0.21,1.58,1.56,5.09,4.68,5.15c2.06,0.02,3.22-1.46,3.34-2.55c0.16-1.46-0.51-2.51-0.9-2.9
		c-0.87-0.87-3.06-1.08-4.02-0.49c0.11-3.21,1.98-5.31,3.95-6.2c2.04-0.92,4.52-0.66,5.24-0.57c3.47,0.44,5.43,2.34,6.77,4.34
		c1.4,2.11,1.9,4.09,2.09,6.21c0.21,2.27-0.15,4.95-1.17,7.58c-0.41,1.04-1.51,3.04-1.99,3.68C42.84,63.88,41.08,65.44,39.03,66.52z
		 M37.81,88.96c0-3.1,2.53-5.57,5.65-5.57c-0.21-0.02,0.21,0,0,0l61.6-0.01v0.01c3.04,0.09,5.48,2.56,5.48,5.6
		c0,3.04-2.44,5.51-5.48,5.6v0.01H42.95v-0.05C40.07,94.29,37.81,91.89,37.81,88.96z M44.99,100.03c0-1.81,1.43-3.43,3.21-3.52V96.5
		h51.23c0.08-0.01,0.16-0.01,0.25-0.01c1.86,0,3.34,1.69,3.34,3.55c0,1.86-1.51,3.54-3.37,3.54c-0.02,0-0.03,0-0.04,0v0H48.2v-0.02
		C46.41,103.47,44.99,101.83,44.99,100.03z M115.22,194.83l-22.39-19.38l-18.18,19.38l-18.3-19.38l-21.79,19.38l14.21-89.69h50.2
		l1.66,9.16h-14.3l0.15,1.19c-2.37-0.83-5.36-1.62-8.96-1.62c-4.24,0-7.94,1.12-10.71,3.22c-2.99,2.28-4.89,5.7-4.94,9.32v0.14
		l0.02,18.73l2.45,1.44c4.27,2.52,8.58,3.74,13.18,3.74c5.95,0,10.12-1.88,12.7-4.62l0.52,4.19h12.69l1.44-2.5l1.35-2.36
		L115.22,194.83z M76.79,134.91c-4.85-1.46-9.71-3.05-9.71-8.5c0-4.21,3.87-7.57,10.44-7.57c3.14,0,5.8,0.74,8.46,1.76v6.06
		c-3.01-1.2-5.59-1.89-8.42-1.89c-2.06,0-2.96,0.51-2.96,1.59c0,1.12,1.16,1.51,3.52,2.28c4.85,1.58,10.35,3.43,10.35,9.02
		c0,4.55-4.04,7.82-10.95,7.82c-4.77,0-8.25-1.63-10.65-3.05v-6.79c3.74,2.62,8.33,3.95,10.61,3.95c1.93,0,3.43-0.43,3.43-1.93
		C80.91,136.2,79.8,135.81,76.79,134.91z M119.28,145.05h-5.41l-6.66-11.64l-6.66,11.64h-5.42l-3.18-25.77h6.66l1.63,14.09l4.86-8.5
		h4.21l4.86,8.5l1.63-14.09h6.66L119.28,145.05z M135.39,145.05h-6.96v-25.77h6.96V145.05z M151.84,145.48
		c-4.77,0-8.24-1.63-10.65-3.05v-6.79c3.73,2.62,8.33,3.95,10.62,3.95c1.93,0,3.43-0.43,3.43-1.93c0-1.46-1.12-1.85-4.13-2.75
		c-4.85-1.46-9.71-3.05-9.71-8.5c0-4.21,3.87-7.57,10.44-7.57c3.14,0,5.8,0.74,8.47,1.76v6.06c-3.01-1.2-5.58-1.89-8.42-1.89
		c-2.06,0-2.96,0.51-2.96,1.59c0,1.12,1.16,1.51,3.52,2.28c4.86,1.58,10.36,3.43,10.36,9.02
		C162.79,142.22,158.76,145.48,151.84,145.48z M176.76,145.48c-4.77,0-8.25-1.63-10.66-3.05v-6.79c3.74,2.62,8.34,3.95,10.61,3.95
		c1.93,0,3.44-0.43,3.44-1.93c0-1.46-1.12-1.85-4.13-2.75c-4.85-1.46-9.7-3.05-9.7-8.5c0-4.21,3.87-7.57,10.44-7.57
		c3.13,0,5.79,0.74,8.46,1.76v6.06c-3.01-1.2-5.58-1.89-8.42-1.89c-2.06,0-2.96,0.51-2.96,1.59c0,1.12,1.16,1.51,3.52,2.28
		c4.86,1.58,10.36,3.43,10.36,9.02C187.71,142.22,183.67,145.48,176.76,145.48z M210.39,145.05h-17.87v-25.77h6.96v19.93h10.91
		V145.05z M224.87,145.48c-8.9,0-12.03-5.41-12.03-13.32c0-7.9,3.13-13.32,12.03-13.32c8.9,0,12.03,5.41,12.03,13.32
		C236.89,140.07,233.76,145.48,224.87,145.48z M251.72,145.48c-4.77,0-8.25-1.63-10.66-3.05v-6.79c3.74,2.62,8.33,3.95,10.62,3.95
		c1.93,0,3.43-0.43,3.43-1.93c0-1.46-1.12-1.85-4.12-2.75c-4.85-1.46-9.71-3.05-9.71-8.5c0-4.21,3.87-7.57,10.44-7.57
		c3.13,0,5.8,0.74,8.46,1.76v6.06c-3.01-1.2-5.58-1.89-8.42-1.89c-2.06,0-2.96,0.51-2.96,1.59c0,1.12,1.16,1.51,3.52,2.28
		c4.86,1.58,10.35,3.43,10.35,9.02C262.67,142.22,258.63,145.48,251.72,145.48z"/>
	<path class="st0" d="M224.87,124.47c-4.04,0-5.07,2.97-5.07,7.69c0,4.77,1.03,7.74,5.07,7.74c4.04,0,5.07-2.97,5.07-7.74
		C229.94,127.44,228.9,124.47,224.87,124.47z"/>
</g>
</svg>
