<?xml version="1.0" encoding="utf-8"?>
<!-- Generator: Adobe Illustrator 26.1.0, SVG Export Plug-In . SVG Version: 6.00 Build 0)  -->
<svg version="1.1" id="BL-Logo" xmlns="http://www.w3.org/2000/svg" xmlns:xlink="http://www.w3.org/1999/xlink" x="0px" y="0px"
	 viewBox="0 0 152.9 64.3" style="enable-background:new 0 0 152.9 64.3;" xml:space="preserve">
<style type="text/css">
	.st0{fill:#FFFFFF;}
</style>
<g>
	<path class="st0" d="M71.78,10.67c0-1.54-0.84-2.88-2.35-3.43c1.21-0.55,1.91-1.61,1.91-2.97c0-2.75-1.96-3.96-4.64-3.96h-5.28V15
		h5.5C69.78,15,71.78,13.44,71.78,10.67z M63.62,2.29h3.12c1.43,0,2.33,0.75,2.33,2.02c0,1.28-0.9,2.02-2.33,2.02h-3.12V2.29z
		 M63.62,13.02v-4.8h3.23c1.65,0,2.66,0.92,2.66,2.4c0,1.45-1.01,2.4-2.66,2.4H63.62z"/>
	<path class="st0" d="M77.64,10.95h4.51L83.23,15h2.29l-4.1-14.7h-2.93L74.39,15h2.18L77.64,10.95z M79.88,2.92l1.81,6.25h-3.63
		L79.88,2.92z"/>
	<path class="st0" d="M92.76,13.29c-1.45,0-2.33-0.81-2.42-2.24h-2.2c0.07,1.32,0.48,2.35,1.25,3.08c0.77,0.73,1.96,1.1,3.34,1.1
		c1.52,0,2.77-0.48,3.61-1.3c0.75-0.73,1.14-1.72,1.14-2.88c0-0.59-0.11-1.17-0.33-1.67c-0.59-1.34-2.05-2.05-3.37-2.66
		c-1.43-0.66-2.31-1.01-2.75-1.61c-0.29-0.35-0.35-0.75-0.35-1.17c0-1.17,0.95-1.94,2.18-1.94c1.3,0,2.09,0.7,2.22,1.96h2.18
		c-0.04-1.1-0.4-1.98-1.03-2.64c-0.77-0.79-1.94-1.23-3.32-1.23c-1.36,0-2.55,0.44-3.37,1.25c-0.7,0.7-1.1,1.72-1.1,2.75
		c0,0.68,0.13,1.3,0.42,1.83c0.59,1.08,1.63,1.61,2.88,2.13c1.47,0.62,2.66,1.12,3.19,2.09c0.18,0.31,0.26,0.64,0.26,0.99
		C95.2,12.32,94.23,13.29,92.76,13.29z"/>
	<polygon class="st0" points="110.44,13.02 103.55,13.02 103.55,8.31 109.27,8.31 109.27,6.31 103.55,6.31 103.55,2.29 110.19,2.29 
		110.19,0.31 101.37,0.31 101.37,15 110.44,15 	"/>
	<polygon class="st0" points="124.52,13.02 116.98,13.02 116.98,0.31 114.78,0.31 114.78,15 124.52,15 	"/>
	<polygon class="st0" points="2.2,19.84 0,19.84 0,34.53 9.75,34.53 9.75,32.55 2.2,32.55 	"/>
	<path class="st0" d="M15.9,19.84l-4.1,14.7h2.18l1.08-4.05h4.51l1.08,4.05h2.29l-4.1-14.7H15.9z M15.47,28.7l1.81-6.25l1.81,6.25
		H15.47z"/>
	<polygon class="st0" points="33.59,29.83 28.56,19.84 26.14,19.84 26.14,34.53 28.23,34.53 28.23,24.15 33.44,34.53 35.68,34.53 
		35.68,19.84 33.59,19.84 	"/>
	<path class="st0" d="M56.93,32.82c-1.45,0-2.33-0.81-2.42-2.24h-2.2c0.07,1.32,0.48,2.35,1.25,3.08c0.77,0.73,1.96,1.1,3.34,1.1
		c1.52,0,2.77-0.48,3.61-1.3c0.75-0.73,1.14-1.72,1.14-2.88c0-0.59-0.11-1.17-0.33-1.67c-0.59-1.34-2.05-2.05-3.37-2.66
		c-1.43-0.66-2.31-1.01-2.75-1.61c-0.29-0.35-0.35-0.75-0.35-1.17c0-1.17,0.95-1.94,2.18-1.94c1.3,0,2.09,0.7,2.22,1.96h2.18
		c-0.04-1.1-0.4-1.98-1.03-2.64c-0.77-0.79-1.94-1.23-3.32-1.23c-1.36,0-2.55,0.44-3.37,1.25c-0.7,0.7-1.1,1.72-1.1,2.75
		c0,0.68,0.13,1.3,0.42,1.83c0.59,1.08,1.63,1.61,2.88,2.13c1.47,0.62,2.66,1.12,3.19,2.09c0.18,0.31,0.26,0.64,0.26,0.99
		C59.38,31.85,58.41,32.82,56.93,32.82z"/>
	<polygon class="st0" points="86.99,34.53 86.99,19.84 84.79,19.84 84.79,25.84 80,25.84 80,19.84 77.8,19.84 77.8,34.53 80,34.53 
		80,27.85 84.79,27.85 84.79,34.53 	"/>
	<path class="st0" d="M94.3,19.84l-4.1,14.7h2.18l1.08-4.05h4.51l1.08,4.05h2.29l-4.1-14.7H94.3z M93.87,28.7l1.81-6.25l1.81,6.25
		H93.87z"/>
	<polygon class="st0" points="112.23,21.82 112.23,19.84 104.53,19.84 104.53,34.53 106.73,34.53 106.73,28.02 111.2,28.02 
		111.2,26.04 106.73,26.04 106.73,21.82 	"/>
	<polygon class="st0" points="114.59,21.82 118.44,21.82 118.44,34.53 120.64,34.53 120.64,21.82 124.53,21.82 124.53,19.84 
		114.59,19.84 	"/>
	<path class="st0" d="M64.76,27.17c0,5.04,1.69,7.59,4.97,7.59c2.83,0,4.35-1.49,4.43-4.19l-2.22,0c-0.05,1.43-0.8,2.25-2.19,2.18
		c-1.89-0.09-2.71-2.09-2.71-5.59c0-3.5,0.81-5.54,2.71-5.53c1.38,0.01,1.96,0.7,2.05,1.83h2.19c-0.05-2.54-1.67-3.85-4.2-3.85
		C66.47,19.62,64.76,22.13,64.76,27.17z"/>
	<path class="st0" d="M49.45,27.19c0-5.06-1.92-7.36-6.99-7.35h-2.2v14.7h2.2C47.52,34.53,49.45,32.27,49.45,27.19z M42.46,21.86
		c3.63,0,4.85,1.01,4.85,5.32c0,4.23-1.19,5.32-4.85,5.32V21.86z"/>
	<polygon class="st0" points="133.61,19.84 132.43,35.84 135.84,31.11 138.07,35.83 140.31,31.12 143.71,35.83 141.86,19.84 	"/>
	<path class="st0" d="M151.38,6.72c-0.05,0-0.1,0.01-0.16,0.02c-0.15-0.61-0.42-1.22-0.79-1.78c0.35-0.28,0.57-0.7,0.57-1.18
		c0-0.84-0.68-1.52-1.52-1.52c-0.47,0-0.89,0.22-1.17,0.56c-0.52-0.35-1.09-0.65-1.72-0.88c0.04-0.13,0.06-0.26,0.06-0.41
		c0-0.84-0.68-1.52-1.52-1.52c-0.79,0-1.44,0.61-1.51,1.39c-0.02,0-0.04,0-0.06,0c-0.58,0-1.21,0.06-1.86,0.2
		c-0.19-0.63-0.76-1.09-1.45-1.09c-0.84,0-1.52,0.68-1.52,1.52c0,0.26,0.07,0.5,0.18,0.71c-0.52,0.33-1.02,0.74-1.49,1.23
		c-0.26-0.22-0.6-0.35-0.96-0.35c-0.84,0-1.52,0.68-1.52,1.52c0,0.57,0.31,1.05,0.77,1.32c-0.27,0.54-0.51,1.13-0.72,1.78
		c-0.13-0.04-0.27-0.06-0.41-0.06c-0.84,0-1.52,0.68-1.52,1.52c0,0.75,0.55,1.37,1.27,1.5c-0.05,0.38-0.11,0.75-0.15,1.16
		c-0.08,0.83-0.13,1.71-0.2,2.67h7.33c-0.11-0.94-0.2-1.75-0.31-2.66c-0.3-2.59,0.01-4.61,1.26-5.67c0.58-0.49,1.41-0.94,2.43-0.94
		c1.89,0,3.11,1.53,3.11,3.05c0,1.72-1.34,3.02-2.86,3.1c0,0-0.15-0.01-0.1,0.11c0.17,0.44,1.33,1.59,3.32,0.94
		c0,0,0.08-0.02,0.21-0.07c0.2,0.37,0.59,0.64,1.04,0.64c0.66,0,1.2-0.54,1.2-1.2c0-0.32-0.13-0.62-0.34-0.83
		c0.35-0.44,0.67-1,0.87-1.71c0.08,0.01,0.16,0.02,0.24,0.02c0.84,0,1.52-0.68,1.52-1.52C152.9,7.4,152.22,6.72,151.38,6.72z"/>
	<polygon class="st0" points="141.47,16.43 127.36,16.43 127.36,18.41 141.7,18.41 	"/>
	<path class="st0" d="M104.05,53.6c-1.67,0-2.09,1.22-2.09,3.17c0,1.96,0.42,3.19,2.09,3.19c1.66,0,2.09-1.22,2.09-3.19
		C106.14,54.82,105.72,53.6,104.05,53.6z"/>
	<path class="st0" d="M120.65,50.6l-1.3-0.51c-1.04-0.4-2.46-0.86-4.23-0.86c-1.75,0-3.27,0.46-4.41,1.33
		c-0.43,0.33-0.79,0.71-1.09,1.12c-1.19-1.59-3.08-2.45-5.57-2.45c-4.45,0-7,2.75-7,7.54c0,0.29,0.01,0.58,0.03,0.85h-1.43v-8.21
		h-6.97v0.77l-0.21-0.08c-1.04-0.4-2.46-0.86-4.23-0.86c-1.75,0-3.27,0.46-4.41,1.33c-0.11,0.08-0.05,0.04-0.16,0.12l-0.17-0.07
		l-1.3-0.51c-1.04-0.4-2.46-0.86-4.23-0.86c-1.75,0-3.27,0.46-4.41,1.33c-0.11,0.08-0.22,0.18-0.32,0.27v-1.42H57.29l-0.21,1.81
		l-0.06,0.49h-2.9l-0.06-0.49l-0.21-1.81h-6.89l0.06,0.49c-0.97-0.34-2.21-0.67-3.69-0.67c-1.75,0-3.27,0.46-4.41,1.33
		c-1.23,0.94-2.02,2.35-2.04,3.84v0.06l0.01,7.72l1.01,0.59c1.76,1.04,3.54,1.54,5.43,1.54c2.45,0,4.17-0.78,5.23-1.9l0.22,1.72
		h5.23l0.59-1.03l0.97-1.69l0.97,1.69l0.59,1.03h12.1v-0.98c1.53,0.78,3.09,1.16,4.73,1.16c2.17,0,3.77-0.61,4.84-1.54
		c1.76,1.03,3.53,1.54,5.42,1.54c1.92,0,3.39-0.48,4.44-1.22v1.04h11.46v-0.78c1.06,0.63,2.38,0.96,3.92,0.96
		c2.17,0,3.88-0.65,5.07-1.87l0.56,0.33c1.76,1.04,3.53,1.54,5.43,1.54c4.53,0,6.56-2.65,6.56-5.27c0-1.29-0.41-2.27-1.03-3.04V50.6
		z M43.35,62.25c-1.97,0-3.4-0.67-4.39-1.25v-2.8c1.54,1.08,3.43,1.63,4.37,1.63c0.8,0,1.42-0.18,1.42-0.8c0-0.6-0.46-0.76-1.7-1.13
		c-2-0.6-4-1.25-4-3.5c0-1.74,1.59-3.12,4.3-3.12c1.29,0,2.39,0.3,3.48,0.72v2.5c-1.24-0.5-2.3-0.78-3.47-0.78
		c-0.85,0-1.22,0.21-1.22,0.65c0,0.46,0.48,0.62,1.45,0.94c2,0.66,4.27,1.42,4.27,3.71C47.86,60.91,46.19,62.25,43.35,62.25z
		 M60.55,62.08h-2.23l-2.74-4.8l-2.75,4.8H50.6l-1.31-10.62h2.75l0.67,5.8l2-3.51h1.74l2,3.51l0.67-5.8h2.74L60.55,62.08z
		 M67.19,62.08h-2.87V51.46h2.87V62.08z M73.97,62.25c-1.96,0-3.4-0.67-4.39-1.25v-2.8c1.54,1.08,3.43,1.63,4.37,1.63
		c0.79,0,1.41-0.18,1.41-0.8c0-0.6-0.46-0.76-1.7-1.13c-2-0.6-4-1.25-4-3.5c0-1.74,1.59-3.12,4.3-3.12c1.29,0,2.39,0.3,3.49,0.72
		v2.5c-1.24-0.5-2.3-0.78-3.47-0.78c-0.85,0-1.22,0.21-1.22,0.65c0,0.46,0.48,0.62,1.45,0.94c2,0.66,4.27,1.42,4.27,3.71
		C78.48,60.91,76.81,62.25,73.97,62.25z M84.23,62.25c-1.96,0-3.4-0.67-4.39-1.25v-2.8c1.54,1.08,3.43,1.63,4.37,1.63
		c0.8,0,1.42-0.18,1.42-0.8c0-0.6-0.46-0.76-1.7-1.13c-2-0.6-4-1.25-4-3.5c0-1.74,1.59-3.12,4.3-3.12c1.29,0,2.39,0.3,3.49,0.72v2.5
		c-1.24-0.5-2.3-0.78-3.47-0.78c-0.85,0-1.22,0.21-1.22,0.65c0,0.46,0.48,0.62,1.45,0.94c2,0.66,4.26,1.42,4.26,3.71
		C88.74,60.91,87.08,62.25,84.23,62.25z M98.09,62.08h-7.36V51.46h2.87v8.21h4.5V62.08z M104.05,62.25c-3.66,0-4.95-2.23-4.95-5.49
		c0-3.26,1.29-5.49,4.95-5.49c3.66,0,4.96,2.23,4.96,5.49C109.01,60.02,107.72,62.25,104.05,62.25z M115.12,62.25
		c-1.96,0-3.4-0.67-4.39-1.25v-2.8c1.54,1.08,3.43,1.63,4.37,1.63c0.8,0,1.42-0.18,1.42-0.8c0-0.6-0.46-0.76-1.7-1.13
		c-2-0.6-4-1.25-4-3.5c0-1.74,1.59-3.12,4.3-3.12c1.29,0,2.39,0.3,3.49,0.72v2.5c-1.24-0.5-2.3-0.78-3.47-0.78
		c-0.85,0-1.22,0.21-1.22,0.65c0,0.46,0.48,0.62,1.45,0.94c2,0.66,4.26,1.42,4.26,3.71C119.63,60.91,117.96,62.25,115.12,62.25z"/>
</g>
</svg>
